TerminusHybrid-SemiBold.sfdir
StartChar: comma
Encoding: 44 44 13
Width: 1024
VWidth: 0
Flags: MW
LayerCount: 5
Back
Fore
SplineSet
464 256 m 258,0,-1
 560 256 l 258,1,2
 576 256 576 256 576 240 c 258,3,-1
 576 112 l 262,4,5
 576 0 576 0 464 -112 c 258,6,7
 448 -128 l 258,8,9
 432 -144 432 -144 416 -128 c 258,10,-1
 352 -64 l 258,11,12
 336 -48 336 -48 352 -32 c 258,13,14
 368 -16 l 258,15,16
 448 64 448 64 448 144 c 258,17,-1
 448 240 l 258,18,19
 448 256 448 256 464 256 c 258,0,-1
EndSplineSet
Validated: 3073
Layer: 2
SplineSet
441 256 m 6,0,-1
 498 256 l 6,1,2
 512 256 512 256 512 242 c 6,3,-1
 512 128 l 6,4,5
 512 28 512 28 412 -71 c 4,6,7
 398 -85 398 -85 384 -71 c 6,8,-1
 356 -43 l 6,9,10
 342 -29 342 -29 356 -14 c 4,11,12
 427 57 427 57 427 128 c 6,13,-1
 427 242 l 6,14,15
 427 256 427 256 441 256 c 6,0,-1
EndSplineSet
Layer: 3
SplineSet
464 256 m 258,0,-1
 560 256 l 258,1,2
 576 256 576 256 576 240 c 258,3,-1
 576 128 l 258,4,5
 576 0 576 0 448 -128 c 256,6,7
 432 -144 432 -144 416 -128 c 258,8,-1
 352 -64 l 258,9,10
 336 -48 336 -48 352 -32 c 258,11,12
 384 0 l 258,13,14
 448 64 448 64 448 128 c 258,15,-1
 448 240 l 258,16,17
 448 256 448 256 464 256 c 258,0,-1
EndSplineSet
Colour: 6600
EndChar
StartChar: period
Encoding: 46 46 15
Width: 1024
VWidth: 0
Flags: MW
LayerCount: 5
Back
Fore
SplineSet
464 256 m 258,0,-1
 560 256 l 258,1,2
 576 256 576 256 576 240 c 262,3,-1
 576 16 l 258,4,5
 576 0 576 0 560 0 c 258,6,-1
 464 0 l 258,7,8
 448 0 448 0 448 16 c 258,9,-1
 448 240 l 258,10,11
 448 256 448 256 464 256 c 258,0,-1
EndSplineSet
Validated: 19457
Layer: 2
SplineSet
441 256 m 6,0,-1
 498 256 l 2,1,2
 512 256 512 256 512 242 c 2,3,-1
 512 14 l 2,4,5
 512 0 512 0 498 0 c 2,6,-1
 441 0 l 2,7,8
 427 0 427 0 427 14 c 2,9,-1
 427 242 l 2,10,11
 427 256 427 256 441 256 c 6,0,-1
EndSplineSet
Layer: 3
SplineSet
464 256 m 258,0,-1
 560 256 l 258,1,2
 576 256 576 256 576 240 c 262,3,-1
 576 16 l 258,4,5
 576 0 576 0 560 0 c 258,6,-1
 464 0 l 258,7,8
 448 0 448 0 448 16 c 258,9,-1
 448 240 l 258,10,11
 448 256 448 256 464 256 c 258,0,-1
EndSplineSet
Colour: 6600
EndChar
StartChar: eight
Encoding: 56 56 25
Width: 1024
VWidth: 0
Flags: MW
LayerCount: 5
Back
Fore
SplineSet
672 576 m 258,0,-1
 352 576 l 258,1,2
 320 576 320 576 288 544 c 256,3,4
 256 512 256 512 256 480 c 258,5,-1
 256 224 l 258,6,7
 256 192 256 192 288 160 c 256,8,9
 320 128 320 128 352 128 c 258,10,-1
 672 128 l 258,11,12
 704 128 704 128 736 160 c 256,13,14
 768 192 768 192 768 224 c 258,15,-1
 768 480 l 258,16,17
 768 512 768 512 736 544 c 256,18,19
 704 576 704 576 672 576 c 258,0,-1
768 800 m 258,20,-1
 768 1056 l 258,21,22
 768 1088 768 1088 736 1120 c 256,23,24
 704 1152 704 1152 672 1152 c 258,25,-1
 352 1152 l 258,26,27
 320 1152 320 1152 288 1120 c 256,28,29
 256 1088 256 1088 256 1056 c 258,30,-1
 256 800 l 258,31,32
 256 768 256 768 288 736 c 256,33,34
 320 704 320 704 352 704 c 258,35,-1
 672 704 l 258,36,37
 704 704 704 704 736 736 c 256,38,39
 768 768 768 768 768 800 c 258,20,-1
128 736 m 258,40,-1
 128 1088 l 258,41,42
 128 1152 128 1152 192 1216 c 256,43,44
 256 1280 256 1280 320 1280 c 258,45,-1
 704 1280 l 258,46,47
 768 1280 768 1280 832 1216 c 256,48,49
 896 1152 896 1152 896 1088 c 258,50,-1
 896 736 l 258,51,52
 896 704 896 704 864 672 c 258,53,-1
 848 656 l 258,54,55
 832 640 832 640 848 624 c 258,56,-1
 864 608 l 258,57,58
 896 576 896 576 896 544 c 258,59,-1
 896 192 l 258,60,61
 896 128 896 128 832 64 c 256,62,63
 768 0 768 0 704 0 c 258,64,-1
 320 0 l 258,65,66
 256 0 256 0 192 64 c 256,67,68
 128 128 128 128 128 192 c 258,69,-1
 128 544 l 258,70,71
 128 576 128 576 160 608 c 258,72,-1
 176 624 l 258,73,74
 192 640 192 640 176 656 c 258,75,-1
 160 672 l 258,76,77
 128 704 128 704 128 736 c 258,40,-1
EndSplineSet
Validated: 19457
Layer: 2
SplineSet
754 540 m 256,0,1
 698 596 698 596 640 596 c 258,2,-1
 384 596 l 262,3,4
 326 596 326 596 270 540 c 256,5,6
 214 484 214 484 214 426 c 258,7,-1
 214 256 l 258,8,9
 214 198 214 198 270 142 c 256,10,11
 326 86 326 86 384 86 c 258,12,-1
 640 86 l 258,13,14
 698 86 698 86 754 142 c 256,15,16
 810 198 810 198 810 256 c 258,17,-1
 810 426 l 258,18,19
 810 484 810 484 754 540 c 256,0,1
810 852 m 258,20,-1
 810 1022 l 258,21,22
 810 1080 810 1080 754 1136 c 256,23,24
 698 1192 698 1192 640 1192 c 258,25,-1
 384 1192 l 258,26,27
 326 1192 326 1192 270 1136 c 256,28,29
 214 1080 214 1080 214 1022 c 258,30,-1
 214 852 l 258,31,32
 214 794 214 794 270 738 c 256,33,34
 326 682 326 682 384 682 c 258,35,-1
 640 682 l 258,36,37
 698 682 698 682 754 738 c 256,38,39
 810 794 810 794 810 852 c 258,20,-1
128 852 m 258,40,-1
 128 1022 l 258,41,42
 128 1106 128 1106 214 1192 c 256,43,44
 300 1278 300 1278 384 1278 c 258,45,-1
 640 1278 l 258,46,47
 724 1278 724 1278 810 1192 c 256,48,49
 896 1106 896 1106 896 1022 c 258,50,-1
 896 852 l 258,51,52
 896 768 896 768 810 682 c 258,53,-1
 780 652 l 282,54,55
 767 639 767 639 780 626 c 282,56,-1
 810 596 l 258,57,58
 896 510 896 510 896 426 c 258,59,-1
 896 256 l 258,60,61
 896 172 896 172 810 86 c 256,62,63
 724 0 724 0 640 0 c 258,64,-1
 384 0 l 258,65,66
 300 0 300 0 214 86 c 256,67,68
 128 172 128 172 128 256 c 258,69,-1
 128 426 l 258,70,71
 128 510 128 510 214 596 c 258,72,-1
 244 626 l 274,73,74
 257 639 257 639 244 652 c 282,75,-1
 214 682 l 258,76,77
 128 768 128 768 128 852 c 258,40,-1
EndSplineSet
Layer: 3
SplineSet
720 560 m 258,0,1
 704 576 704 576 688 576 c 258,2,-1
 336 576 l 258,3,4
 320 576 320 576 304 560 c 258,5,6
 272 528 l 2,7,8
 256 512 256 512 256 496 c 258,9,-1
 256 208 l 258,10,11
 256 192 256 192 272 176 c 258,12,-1
 304 144 l 2,13,14
 320 128 320 128 336 128 c 258,15,-1
 688 128 l 258,16,17
 704 128 704 128 720 144 c 258,18,19
 752 176 l 2,20,21
 768 192 768 192 768 208 c 258,22,-1
 768 496 l 258,23,24
 768 512 768 512 752 528 c 2,25,26
 720 560 l 258,0,1
768 784 m 258,27,-1
 768 1072 l 258,28,29
 768 1088 768 1088 752 1104 c 2,30,31
 720 1136 l 258,32,33
 704 1152 704 1152 688 1152 c 258,34,-1
 336 1152 l 258,35,36
 320 1152 320 1152 304 1136 c 258,37,38
 272 1104 l 2,39,40
 256 1088 256 1088 256 1072 c 258,41,-1
 256 784 l 258,42,43
 256 768 256 768 272 752 c 2,44,45
 304 720 l 258,46,47
 320 704 320 704 336 704 c 258,48,-1
 688 704 l 258,49,50
 704 704 704 704 720 720 c 2,51,52
 752 752 l 258,53,54
 768 768 768 768 768 784 c 258,27,-1
128 736 m 258,55,-1
 128 1120 l 258,56,57
 128 1152 128 1152 160 1184 c 258,58,59
 224 1248 l 2,60,61
 256 1280 256 1280 288 1280 c 258,62,-1
 736 1280 l 258,63,64
 768 1280 768 1280 800 1248 c 258,65,66
 864 1184 l 2,67,68
 896 1152 896 1152 896 1120 c 258,69,-1
 896 736 l 258,70,71
 896 704 896 704 864 672 c 258,72,-1
 848 656 l 2,73,74
 832 640 832 640 848 624 c 2,75,-1
 864 608 l 258,76,77
 896 576 896 576 896 544 c 258,78,-1
 896 160 l 258,79,80
 896 128 896 128 864 96 c 2,81,-1
 800 32 l 258,82,83
 768 0 768 0 736 0 c 258,84,-1
 288 0 l 258,85,86
 256 0 256 0 224 32 c 2,87,-1
 160 96 l 258,88,89
 128 128 128 128 128 160 c 258,90,-1
 128 544 l 258,91,92
 128 576 128 576 160 608 c 258,93,-1
 176 624 l 2,94,95
 192 640 192 640 176 656 c 6,96,-1
 160 672 l 2,97,98
 128 704 128 704 128 736 c 258,55,-1
EndSplineSet
Colour: 6600
EndChar
StartChar: J
Encoding: 74 74 43
Width: 1024
VWidth: 0
Flags: MW
LayerCount: 5
Back
Fore
SplineSet
960 1264 m 262,0,-1
 960 1168 l 262,1,2
 960 1152 960 1152 944 1152 c 262,3,-1
 848 1152 l 262,4,5
 832 1152 832 1152 832 1136 c 262,6,-1
 832 192 l 262,7,8
 832 128 832 128 768 64 c 260,9,10
 704 0 704 0 640 0 c 262,11,-1
 320 0 l 262,12,13
 256 0 256 0 192 64 c 260,14,15
 128 128 128 128 128 192 c 262,16,-1
 128 368 l 262,17,18
 128 384 128 384 144 384 c 262,19,-1
 240 384 l 262,20,21
 256 384 256 384 256 368 c 262,22,-1
 256 224 l 262,23,24
 256 192 256 192 288 160 c 260,25,26
 320 128 320 128 352 128 c 262,27,-1
 608 128 l 262,28,29
 640 128 640 128 672 160 c 260,30,31
 704 192 704 192 704 224 c 262,32,-1
 704 1136 l 262,33,34
 704 1152 704 1152 688 1152 c 262,35,-1
 592 1152 l 262,36,37
 576 1152 576 1152 576 1168 c 262,38,-1
 576 1264 l 262,39,40
 576 1280 576 1280 592 1280 c 262,41,-1
 944 1280 l 262,42,43
 960 1280 960 1280 960 1264 c 262,0,-1
EndSplineSet
Validated: 19457
Layer: 2
SplineSet
939 1266 m 2,0,-1
 939 1209 l 2,1,2
 939 1195 939 1195 924 1195 c 2,3,-1
 782 1195 l 2,4,5
 768 1195 768 1195 768 1180 c 2,6,-1
 768 256 l 2,7,8
 768 171 768 171 682.5 85.5 c 128,-1,9
 597 0 597 0 512 0 c 2,10,-1
 341 0 l 2,11,12
 256 0 256 0 170.5 85.5 c 128,-1,13
 85 171 85 171 85 256 c 2,14,-1
 85 412 l 6,15,16
 85 427 85 427 100 427 c 2,17,-1
 156 427 l 2,18,19
 171 427 171 427 171 412 c 2,20,-1
 171 256 l 2,21,22
 171 199 171 199 227.5 142 c 128,-1,23
 284 85 284 85 341 85 c 2,24,-1
 512 85 l 2,25,26
 569 85 569 85 626 142 c 128,-1,27
 683 199 683 199 683 256 c 2,28,-1
 683 1180 l 2,29,30
 683 1195 683 1195 668 1195 c 2,31,-1
 526 1195 l 2,32,33
 512 1195 512 1195 512 1209 c 2,34,-1
 512 1266 l 2,35,36
 512 1280 512 1280 526 1280 c 2,37,-1
 924 1280 l 2,38,39
 939 1280 939 1280 939 1266 c 2,0,-1
EndSplineSet
Layer: 3
SplineSet
960 1264 m 258,0,-1
 960 1168 l 258,1,2
 960 1152 960 1152 944 1152 c 258,3,-1
 848 1152 l 258,4,5
 832 1152 832 1152 832 1136 c 258,6,-1
 832 160 l 258,7,8
 832 128 832 128 800 96 c 258,9,10
 736 32 l 258,11,12
 704 0 704 0 672 0 c 258,13,-1
 288 0 l 258,14,15
 256 0 256 0 224 32 c 258,16,17
 160 96 l 258,18,19
 128 128 128 128 128 160 c 258,20,-1
 128 368 l 258,21,22
 128 384 128 384 144 384 c 258,23,-1
 240 384 l 258,24,25
 256 384 256 384 256 368 c 258,26,-1
 256 208 l 258,27,28
 256 192 256 192 272 176 c 258,29,30
 304 144 l 258,31,32
 320 128 320 128 336 128 c 258,33,-1
 624 128 l 258,34,35
 640 128 640 128 656 144 c 258,36,37
 688 176 l 258,38,39
 704 192 704 192 704 208 c 258,40,-1
 704 1136 l 258,41,42
 704 1152 704 1152 688 1152 c 258,43,-1
 592 1152 l 258,44,45
 576 1152 576 1152 576 1168 c 258,46,-1
 576 1264 l 258,47,48
 576 1280 576 1280 592 1280 c 258,49,-1
 944 1280 l 258,50,51
 960 1280 960 1280 960 1264 c 258,0,-1
EndSplineSet
Colour: 6600
EndChar
StartChar: M
Encoding: 77 77 46
Width: 1024
VWidth: 0
Flags: MW
LayerCount: 5
Back
Fore
SplineSet
496 576 m 262,0,-1
 304 768 l 262,1,2
 288 784 288 784 272 784 c 260,3,4
 256 784 256 784 256 768 c 262,5,-1
 256 16 l 262,6,7
 256 0 256 0 240 0 c 262,8,-1
 144 0 l 262,9,10
 128 0 128 0 128 16 c 262,11,-1
 128 1264 l 262,12,13
 128 1280 128 1280 144 1280 c 262,14,-1
 240 1280 l 262,15,16
 256 1280 256 1280 256 1264 c 262,17,-1
 256 1248 l 262,18,19
 256 1008 256 1008 480 784 c 262,20,-1
 496 768 l 262,21,22
 512 752 512 752 528 768 c 262,23,-1
 544 784 l 262,24,25
 768 1008 768 1008 768 1248 c 262,26,27
 768 1264 l 262,28,29
 768 1280 768 1280 784 1280 c 262,30,-1
 880 1280 l 262,31,32
 896 1280 896 1280 896 1264 c 262,33,-1
 896 16 l 262,34,35
 896 0 896 0 880 0 c 262,36,-1
 784 0 l 262,37,38
 768 0 768 0 768 16 c 262,39,-1
 768 768 l 262,40,41
 768 784 768 784 752 784 c 260,42,43
 736 784 736 784 720 768 c 262,44,-1
 528 576 l 262,45,46
 512 560 512 560 496 576 c 262,0,-1
EndSplineSet
Validated: 19457
Layer: 2
SplineSet
498 597 m 2,0,-1
 256 839 l 2,1,2
 242 853 242 853 227.5 853 c 128,-1,3
 213 853 213 853 213 839 c 2,4,-1
 213 14 l 2,5,6
 213 0 213 0 199 0 c 2,7,-1
 142 0 l 2,8,9
 128 0 128 0 128 14 c 2,10,-1
 128 1266 l 2,11,12
 128 1280 128 1280 142 1280 c 2,13,-1
 199 1280 l 2,14,15
 213 1280 213 1280 213 1266 c 0,16,17
 213 996 213 996 484 725 c 2,18,-1
 498 711 l 2,19,20
 512 697 512 697 526 711 c 2,21,-1
 540 725 l 2,22,23
 810 995 810 995 811 1266 c 0,24,25
 811 1280 811 1280 825 1280 c 2,26,-1
 882 1280 l 2,27,28
 896 1280 896 1280 896 1266 c 2,29,-1
 896 14 l 2,30,31
 896 0 896 0 882 0 c 2,32,-1
 825 0 l 2,33,34
 811 0 811 0 811 14 c 2,35,-1
 811 839 l 2,36,37
 811 853 811 853 796.5 853 c 128,-1,38
 782 853 782 853 768 839 c 2,39,-1
 526 597 l 2,40,41
 512 583 512 583 498 597 c 2,0,-1
EndSplineSet
Layer: 3
SplineSet
496 576 m 258,0,-1
 304 768 l 258,1,2
 288 784 288 784 272 784 c 256,3,4
 256 784 256 784 256 768 c 258,5,-1
 256 16 l 258,6,7
 256 0 256 0 240 0 c 258,8,-1
 144 0 l 258,9,10
 128 0 128 0 128 16 c 258,11,-1
 128 1264 l 258,12,13
 128 1280 128 1280 144 1280 c 258,14,-1
 240 1280 l 258,15,16
 256 1280 256 1280 256 1264 c 258,17,-1
 256 1248 l 258,18,19
 256 1008 256 1008 480 784 c 258,20,-1
 496 768 l 258,21,22
 512 752 512 752 528 768 c 258,23,-1
 544 784 l 258,24,25
 768 1008 768 1008 768 1248 c 258,26,27
 768 1264 l 258,28,29
 768 1280 768 1280 784 1280 c 258,30,-1
 880 1280 l 258,31,32
 896 1280 896 1280 896 1264 c 258,33,-1
 896 16 l 258,34,35
 896 0 896 0 880 0 c 258,36,-1
 784 0 l 258,37,38
 768 0 768 0 768 16 c 258,39,-1
 768 768 l 258,40,41
 768 784 768 784 752 784 c 256,42,43
 736 784 736 784 720 768 c 258,44,-1
 528 576 l 258,45,46
 512 560 512 560 496 576 c 258,0,-1
EndSplineSet
Colour: 6600
EndChar
StartChar: N
Encoding: 78 78 47
Width: 1024
VWidth: 0
Flags: MW
LayerCount: 5
Back
Fore
SplineSet
144 1280 m 262,0,-1
 240 1280 l 262,1,2
 256 1280 256 1280 256 1264 c 262,3,4
 256 1248 l 262,5,6
 256 992 256 992 512 736 c 262,7,-1
 720 528 l 262,8,9
 736 512 736 512 752 512 c 260,10,11
 768 512 768 512 768 528 c 262,12,-1
 768 1264 l 262,13,14
 768 1280 768 1280 784 1280 c 262,15,-1
 880 1280 l 262,16,17
 896 1280 896 1280 896 1264 c 262,18,-1
 896 16 l 262,19,20
 896 0 896 0 880 0 c 262,21,-1
 784 0 l 262,22,23
 768 0 768 0 768 16 c 262,24,25
 768 32 l 262,26,27
 768 288 768 288 512 544 c 262,28,-1
 304 752 l 262,29,30
 288 768 288 768 272 768 c 260,31,32
 256 768 256 768 256 752 c 262,33,-1
 256 16 l 262,34,35
 256 0 256 0 240 0 c 262,36,-1
 144 0 l 262,37,38
 128 0 128 0 128 16 c 262,39,-1
 128 1264 l 262,40,41
 128 1280 128 1280 144 1280 c 262,0,-1
EndSplineSet
Validated: 19457
Layer: 2
SplineSet
142 1280 m 2,0,-1
 199 1280 l 2,1,2
 213 1280 213 1280 213 1266 c 0,3,4
 213 996 213 996 484 725 c 2,5,-1
 768 441 l 2,6,7
 782 427 782 427 796.5 427 c 128,-1,8
 811 427 811 427 811 441 c 2,9,-1
 811 1266 l 2,10,11
 811 1280 811 1280 825 1280 c 2,12,-1
 882 1280 l 2,13,14
 896 1280 896 1280 896 1266 c 2,15,-1
 896 14 l 2,16,17
 896 0 896 0 882 0 c 2,18,-1
 825 0 l 2,19,20
 811 0 811 0 811 14 c 0,21,22
 811 284 811 284 540 555 c 2,23,-1
 256 839 l 2,24,25
 242 853 242 853 227.5 853 c 128,-1,26
 213 853 213 853 213 839 c 2,27,-1
 213 14 l 2,28,29
 213 0 213 0 199 0 c 2,30,-1
 142 0 l 2,31,32
 128 0 128 0 128 14 c 6,33,-1
 128 1266 l 2,34,35
 128 1280 128 1280 142 1280 c 2,0,-1
EndSplineSet
Layer: 3
SplineSet
144 1280 m 258,0,-1
 240 1280 l 258,1,2
 256 1280 256 1280 256 1264 c 258,3,4
 256 1248 l 258,5,6
 256 992 256 992 512 736 c 258,7,-1
 720 528 l 258,8,9
 736 512 736 512 752 512 c 256,10,11
 768 512 768 512 768 528 c 258,12,-1
 768 1264 l 258,13,14
 768 1280 768 1280 784 1280 c 258,15,-1
 880 1280 l 258,16,17
 896 1280 896 1280 896 1264 c 258,18,-1
 896 16 l 258,19,20
 896 0 896 0 880 0 c 258,21,-1
 784 0 l 258,22,23
 768 0 768 0 768 16 c 258,24,25
 768 32 l 262,26,27
 768 288 768 288 512 544 c 258,28,-1
 304 752 l 258,29,30
 288 768 288 768 272 768 c 256,31,32
 256 768 256 768 256 752 c 258,33,-1
 256 16 l 258,34,35
 256 0 256 0 240 0 c 258,36,-1
 144 0 l 258,37,38
 128 0 128 0 128 16 c 258,39,-1
 128 1264 l 258,40,41
 128 1280 128 1280 144 1280 c 258,0,-1
EndSplineSet
Colour: 6600
EndChar
StartChar: P
Encoding: 80 80 49
Width: 1024
VWidth: 0
Flags: MW
LayerCount: 5
Back
Fore
SplineSet
272 640 m 286,0,-1
 672 640 l 262,1,2
 704 640 704 640 736 672 c 260,3,4
 768 704 768 704 768 736 c 262,5,-1
 768 1056 l 262,6,7
 768 1088 768 1088 736 1120 c 260,8,9
 704 1152 704 1152 672 1152 c 262,10,-1
 272 1152 l 262,11,12
 256 1152 256 1152 256 1136 c 262,13,-1
 256 656 l 262,14,15
 256 640 256 640 272 640 c 286,0,-1
128 16 m 262,16,-1
 128 1264 l 262,17,18
 128 1280 128 1280 144 1280 c 262,19,-1
 704 1280 l 262,20,21
 768 1280 768 1280 832 1216 c 260,22,23
 896 1152 896 1152 896 1088 c 262,24,-1
 896 704 l 262,25,26
 896 640 896 640 832 576 c 260,27,28
 768 512 768 512 704 512 c 262,29,-1
 272 512 l 262,30,31
 256 512 256 512 256 496 c 262,32,-1
 256 16 l 262,33,34
 256 0 256 0 240 0 c 262,35,-1
 144 0 l 262,36,37
 128 0 128 0 128 16 c 262,16,-1
EndSplineSet
Validated: 19457
Layer: 2
SplineSet
228 683 m 6,0,-1
 640 683 l 2,1,2
 697 683 697 683 754 739.5 c 128,-1,3
 811 796 811 796 811 853 c 2,4,-1
 811 1024 l 2,5,6
 811 1081 811 1081 754 1138 c 128,-1,7
 697 1195 697 1195 640 1195 c 2,8,-1
 228 1195 l 6,9,10
 213 1195 213 1195 213 1180 c 2,11,-1
 213 697 l 2,12,13
 213 683 213 683 228 683 c 6,0,-1
128 14 m 2,14,-1
 128 1266 l 2,15,16
 128 1280 128 1280 142 1280 c 2,17,-1
 640 1280 l 2,18,19
 725 1280 725 1280 810.5 1194.5 c 128,-1,20
 896 1109 896 1109 896 1024 c 2,21,-1
 896 853 l 2,22,23
 896 768 896 768 810.5 682.5 c 128,-1,24
 725 597 725 597 640 597 c 2,25,-1
 228 597 l 6,26,27
 213 597 213 597 213 583 c 2,28,-1
 213 14 l 2,29,30
 213 0 213 0 199 0 c 2,31,-1
 142 0 l 2,32,33
 128 0 128 0 128 14 c 2,14,-1
EndSplineSet
Layer: 3
SplineSet
272 640 m 282,0,-1
 688 640 l 258,1,2
 704 640 704 640 720 656 c 258,3,4
 752 688 l 2,5,6
 768 704 768 704 768 720 c 258,7,-1
 768 1072 l 258,8,9
 768 1088 768 1088 752 1104 c 258,10,11
 720 1136 l 2,12,13
 704 1152 704 1152 688 1152 c 258,14,-1
 272 1152 l 258,15,16
 256 1152 256 1152 256 1136 c 258,17,-1
 256 656 l 2,18,19
 256 640 256 640 272 640 c 282,0,-1
128 16 m 258,20,-1
 128 1264 l 258,21,22
 128 1280 128 1280 144 1280 c 258,23,-1
 736 1280 l 258,24,25
 768 1280 768 1280 800 1248 c 6,26,27
 864 1184 l 262,28,29
 896 1152 896 1152 896 1120 c 258,30,-1
 896 672 l 258,31,32
 896 640 896 640 864 608 c 2,33,34
 800 544 l 258,35,36
 768 512 768 512 736 512 c 258,37,-1
 272 512 l 258,38,39
 256 512 256 512 256 496 c 258,40,-1
 256 16 l 258,41,42
 256 0 256 0 240 0 c 258,43,-1
 144 0 l 258,44,45
 128 0 128 0 128 16 c 258,20,-1
EndSplineSet
Colour: 6600
EndChar
StartChar: Q
Encoding: 81 81 50
Width: 1024
VWidth: 0
Flags: MW
LayerCount: 5
Back
Fore
SplineSet
128 192 m 262,0,-1
 128 1088 l 262,1,2
 128 1152 128 1152 192 1216 c 260,3,4
 256 1280 256 1280 320 1280 c 262,5,-1
 704 1280 l 262,6,7
 768 1280 768 1280 832 1216 c 260,8,9
 896 1152 896 1152 896 1088 c 262,10,-1
 896 192 l 262,11,12
 896 128 896 128 832 64 c 262,13,-1
 800 32 l 286,14,15
 784 16 784 16 800 0 c 286,16,-1
 880 -80 l 262,17,18
 896 -96 896 -96 896 -112 c 260,19,20
 896 -128 896 -128 880 -128 c 262,21,-1
 784 -128 l 262,22,23
 768 -128 768 -128 752 -112 c 262,24,-1
 656 -16 l 262,25,26
 640 0 640 0 624 0 c 262,27,-1
 320 0 l 262,28,29
 256 0 256 0 192 64 c 260,30,31
 128 128 128 128 128 192 c 262,0,-1
256 1056 m 262,32,-1
 256 224 l 262,33,34
 256 192 256 192 288 160 c 260,35,36
 320 128 320 128 352 128 c 262,37,-1
 464 128 l 262,38,39
 480 128 480 128 480 144 c 260,40,41
 480 160 480 160 464 176 c 261,42,-1
 432 208 l 262,43,44
 416 224 416 224 416 240 c 260,45,46
 416 256 416 256 432 256 c 262,47,-1
 528 256 l 262,48,49
 544 256 544 256 560 240 c 262,50,-1
 656 144 l 262,51,52
 672 128 672 128 688 128 c 284,53,54
 704 128 704 128 720 144 c 262,55,-1
 736 160 l 262,56,57
 768 192 768 192 768 224 c 262,58,-1
 768 1056 l 262,59,60
 768 1088 768 1088 736 1120 c 260,61,62
 704 1152 704 1152 672 1152 c 262,63,-1
 352 1152 l 262,64,65
 320 1152 320 1152 288 1120 c 260,66,67
 256 1088 256 1088 256 1056 c 262,32,-1
EndSplineSet
Validated: 19457
Layer: 2
SplineSet
128 256 m 2,0,-1
 128 1024 l 2,1,2
 128 1109 128 1109 213.5 1194.5 c 128,-1,3
 299 1280 299 1280 384 1280 c 2,4,-1
 640 1280 l 2,5,6
 725 1280 725 1280 810.5 1194.5 c 128,-1,7
 896 1109 896 1109 896 1024 c 2,8,-1
 896 256 l 2,9,10
 896 171 896 171 811 85 c 2,11,-1
 782 57 l 2,12,13
 768 43 768 43 768 28.5 c 128,-1,14
 768 14 768 14 782 0 c 2,15,-1
 882 -100 l 2,16,17
 896 -114 896 -114 882 -128 c 2,18,-1
 853 -156 l 2,19,20
 839 -170 839 -170 825 -156 c 2,21,-1
 697 -28 l 2,22,23
 669 0 669 0 640 0 c 2,24,-1
 384 0 l 2,25,26
 299 0 299 0 213.5 85.5 c 128,-1,27
 128 171 128 171 128 256 c 2,0,-1
213 1024 m 2,28,-1
 213 256 l 2,29,30
 213 199 213 199 270 142 c 128,-1,31
 327 85 327 85 384 85 c 2,32,-1
 540 85 l 6,33,34
 555 85 555 85 555 99.5 c 128,-1,35
 555 114 555 114 540 128 c 2,36,-1
 484 185 l 2,37,38
 470 199 470 199 484 213 c 2,39,-1
 512 242 l 2,40,41
 526 256 526 256 540 242 c 2,42,-1
 683 100 l 2,43,44
 697 86 697 86 711 100 c 6,45,-1
 754 142 l 2,46,47
 811 199 811 199 811 256 c 2,48,-1
 811 1024 l 2,49,50
 811 1081 811 1081 754 1138 c 128,-1,51
 697 1195 697 1195 640 1195 c 2,52,-1
 384 1195 l 2,53,54
 327 1195 327 1195 270 1138 c 128,-1,55
 213 1081 213 1081 213 1024 c 2,28,-1
EndSplineSet
Layer: 3
SplineSet
128 160 m 258,0,-1
 128 1120 l 258,1,2
 128 1152 128 1152 160 1184 c 258,3,4
 224 1248 l 258,5,6
 256 1280 256 1280 288 1280 c 258,7,-1
 736 1280 l 258,8,9
 768 1280 768 1280 800 1248 c 258,10,11
 864 1184 l 258,12,13
 896 1152 896 1152 896 1120 c 258,14,-1
 896 160 l 258,15,16
 896 128 896 128 864 96 c 258,17,-1
 800 32 l 282,18,19
 784 16 784 16 800 0 c 282,20,-1
 880 -80 l 258,21,22
 896 -96 896 -96 896 -112 c 256,23,24
 896 -128 896 -128 880 -128 c 258,25,-1
 784 -128 l 258,26,27
 768 -128 768 -128 752 -112 c 258,28,-1
 656 -16 l 258,29,30
 640 0 640 0 624 0 c 258,31,-1
 288 0 l 258,32,33
 256 0 256 0 224 32 c 258,34,-1
 160 96 l 258,35,36
 128 128 128 128 128 160 c 258,0,-1
256 1072 m 258,37,-1
 256 208 l 258,38,39
 256 190 256 190 272 176 c 256,40,-1
 304 144 l 258,41,42
 320 128 320 128 336 128 c 258,43,-1
 464 128 l 258,44,45
 480 128 480 128 480 144 c 256,46,47
 480 160 480 160 464 176 c 257,48,-1
 432 208 l 258,49,50
 416 224 416 224 416 240 c 256,51,52
 416 256 416 256 432 256 c 258,53,-1
 528 256 l 258,54,55
 544 256 544 256 560 240 c 258,56,-1
 656 144 l 258,57,58
 672 128 672 128 688 128 c 280,59,60
 704 128 704 128 720 144 c 258,61,-1
 752 176 l 258,62,63
 768 192 768 192 768 208 c 258,64,-1
 768 1072 l 258,65,66
 768 1088 768 1088 752 1104 c 258,67,-1
 720 1136 l 258,68,69
 704 1152 704 1152 688 1152 c 258,70,-1
 336 1152 l 258,71,72
 320 1152 320 1152 304 1136 c 258,73,-1
 272 1104 l 258,74,75
 256 1088 256 1088 256 1072 c 258,37,-1
EndSplineSet
Colour: 6600
EndChar
StartChar: R
Encoding: 82 82 51
Width: 1024
VWidth: 0
Flags: MW
LayerCount: 5
Back
Fore
SplineSet
272 640 m 262,0,-1
 672 640 l 262,1,2
 704 640 704 640 736 672 c 260,3,4
 768 704 768 704 768 736 c 262,5,-1
 768 1056 l 262,6,7
 768 1088 768 1088 736 1120 c 260,8,9
 704 1152 704 1152 672 1152 c 262,10,-1
 272 1152 l 262,11,12
 256 1152 256 1152 256 1136 c 262,13,-1
 256 656 l 262,14,15
 256 640 256 640 272 640 c 262,0,-1
128 16 m 262,16,-1
 128 1264 l 262,17,18
 128 1280 128 1280 144 1280 c 262,19,-1
 704 1280 l 262,20,21
 768 1280 768 1280 832 1216 c 260,22,23
 896 1152 896 1152 896 1088 c 262,24,-1
 896 704 l 262,25,26
 896 640 896 640 832 576 c 260,27,28
 768 512 768 512 704 512 c 262,29,-1
 528 512 l 262,30,31
 512 512 512 512 512 496 c 260,32,33
 512 480 512 480 528 464 c 262,34,-1
 832 160 l 262,35,36
 896 96 896 96 896 32 c 262,37,-1
 896 16 l 262,38,39
 896 0 896 0 880 0 c 262,40,-1
 784 0 l 262,41,42
 768 0 768 0 768 16 c 284,43,44
 768 32 768 32 752 48 c 262,45,-1
 304 496 l 262,46,47
 288 512 288 512 272 512 c 260,48,49
 256 512 256 512 256 496 c 262,50,-1
 256 16 l 262,51,52
 256 0 256 0 240 0 c 262,53,-1
 144 0 l 262,54,55
 128 0 128 0 128 16 c 262,16,-1
EndSplineSet
Validated: 19457
Layer: 2
SplineSet
228 683 m 6,0,-1
 640 683 l 2,1,2
 697 683 697 683 754 739.5 c 128,-1,3
 811 796 811 796 811 853 c 2,4,-1
 811 1024 l 2,5,6
 811 1081 811 1081 754 1138 c 128,-1,7
 697 1195 697 1195 640 1195 c 2,8,-1
 228 1195 l 6,9,10
 213 1195 213 1195 213 1180 c 2,11,-1
 213 697 l 2,12,13
 213 683 213 683 228 683 c 6,0,-1
128 14 m 2,14,-1
 128 1266 l 2,15,16
 128 1280 128 1280 142 1280 c 2,17,-1
 640 1280 l 2,18,19
 725 1280 725 1280 810.5 1194.5 c 128,-1,20
 896 1109 896 1109 896 1024 c 2,21,-1
 896 853 l 2,22,23
 896 768 896 768 810.5 682.5 c 128,-1,24
 725 597 725 597 640 597 c 2,25,-1
 398 597 l 2,26,27
 384 597 384 597 384 583 c 128,-1,28
 384 569 384 569 398 555 c 2,29,-1
 853 100 l 2,30,31
 896 57 896 57 896 14 c 0,32,33
 896 0 896 0 882 0 c 2,34,-1
 825 0 l 2,35,36
 811 0 811 0 811 14 c 128,-1,37
 811 28 811 28 796 43 c 2,38,-1
 256 583 l 2,39,40
 242 597 242 597 227.5 597 c 128,-1,41
 213 597 213 597 213 583 c 2,42,-1
 213 14 l 2,43,44
 213 0 213 0 199 0 c 2,45,-1
 142 0 l 2,46,47
 128 0 128 0 128 14 c 2,14,-1
EndSplineSet
Layer: 3
SplineSet
272 640 m 258,0,-1
 688 640 l 258,1,2
 704 640 704 640 720 656 c 258,3,4
 752 688 l 258,5,6
 768 704 768 704 768 720 c 258,7,-1
 768 1072 l 258,8,9
 768 1088 768 1088 752 1104 c 258,10,11
 720 1136 l 258,12,13
 704 1152 704 1152 688 1152 c 258,14,-1
 272 1152 l 258,15,16
 256 1152 256 1152 256 1136 c 258,17,-1
 256 656 l 258,18,19
 256 640 256 640 272 640 c 258,0,-1
128 16 m 258,20,-1
 128 1264 l 258,21,22
 128 1280 128 1280 144 1280 c 258,23,-1
 736 1280 l 258,24,25
 768 1280 768 1280 800 1248 c 258,26,27
 864 1184 l 258,28,29
 896 1152 896 1152 896 1120 c 258,30,-1
 896 672 l 258,31,32
 896 640 896 640 864 608 c 258,33,-1
 800 544 l 258,34,35
 768 512 768 512 736 512 c 258,36,-1
 528 512 l 258,37,38
 512 512 512 512 512 496 c 256,39,40
 512 480 512 480 528 464 c 258,41,-1
 864 128 l 258,42,43
 896 96 896 96 896 64 c 258,44,-1
 896 16 l 258,45,46
 896 0 896 0 880 0 c 258,47,-1
 784 0 l 258,48,49
 768 0 768 0 768 16 c 284,50,51
 768 32 768 32 752 48 c 258,52,-1
 304 496 l 258,53,54
 288 512 288 512 272 512 c 256,55,56
 256 512 256 512 256 496 c 258,57,-1
 256 16 l 258,58,59
 256 0 256 0 240 0 c 258,60,-1
 144 0 l 258,61,62
 128 0 128 0 128 16 c 258,20,-1
EndSplineSet
Colour: 6600
EndChar
StartChar: Z
Encoding: 90 90 59
Width: 1024
VWidth: 0
Flags: MW
LayerCount: 5
Back
Fore
SplineSet
128 1168 m 258,0,-1
 128 1264 l 258,1,2
 128 1280 128 1280 144 1280 c 258,3,-1
 880 1280 l 258,4,5
 896 1280 896 1280 896 1264 c 258,6,-1
 896 1120 l 258,7,8
 896 928 896 928 704 736 c 258,9,-1
 384 416 l 258,10,11
 256 288 256 288 256 160 c 258,12,13
 256 144 l 258,14,15
 256 128 256 128 272 128 c 258,16,-1
 880 128 l 258,17,18
 896 128 896 128 896 112 c 258,19,-1
 896 16 l 258,20,21
 896 0 896 0 880 0 c 258,22,-1
 144 0 l 258,23,24
 128 0 128 0 128 16 c 258,25,-1
 128 160 l 258,26,27
 128 352 128 352 320 544 c 258,28,-1
 640 864 l 258,29,30
 768 992 768 992 768 1120 c 258,31,-1
 768 1136 l 258,32,33
 768 1152 768 1152 752 1152 c 258,34,-1
 144 1152 l 258,35,36
 128 1152 128 1152 128 1168 c 258,0,-1
EndSplineSet
Validated: 19457
Layer: 2
SplineSet
128 1209 m 2,0,-1
 128 1266 l 2,1,2
 128 1280 128 1280 142 1280 c 2,3,-1
 882 1280 l 2,4,5
 896 1280 896 1280 896 1266 c 2,6,-1
 896 1138 l 2,7,8
 896 967 896 967 725 796 c 2,9,-1
 384 455 l 2,10,11
 213 284 213 284 213 114 c 0,12,13
 213 85 213 85 242 85 c 2,14,-1
 882 85 l 2,15,16
 896 85 896 85 896 71 c 2,17,-1
 896 14 l 2,18,19
 896 0 896 0 882 0 c 2,20,-1
 142 0 l 2,21,22
 128 0 128 0 128 14 c 2,23,-1
 128 142 l 2,24,25
 128 313 128 313 299 484 c 2,26,-1
 640 825 l 2,27,28
 811 996 811 996 811 1166 c 0,29,30
 811 1195 811 1195 782 1195 c 2,31,-1
 142 1195 l 2,32,33
 128 1195 128 1195 128 1209 c 2,0,-1
EndSplineSet
Layer: 3
SplineSet
128 1168 m 2,0,-1
 128 1264 l 2,1,2
 128 1280 128 1280 144 1280 c 2,3,-1
 880 1280 l 2,4,5
 896 1280 896 1280 896 1264 c 2,6,-1
 896 1120 l 2,7,8
 896 928 896 928 704 736 c 2,9,-1
 384 416 l 6,10,11
 256 288 256 288 256 160 c 2,12,13
 256 144 l 2,14,15
 256 128 256 128 272 128 c 2,16,-1
 880 128 l 2,17,18
 896 128 896 128 896 112 c 2,19,-1
 896 16 l 2,20,21
 896 0 896 0 880 0 c 2,22,-1
 144 0 l 2,23,24
 128 0 128 0 128 16 c 2,25,-1
 128 160 l 2,26,27
 128 352 128 352 320 544 c 6,28,-1
 640 864 l 2,29,30
 768 992 768 992 768 1120 c 2,31,-1
 768 1136 l 2,32,33
 768 1152 768 1152 752 1152 c 2,34,-1
 144 1152 l 2,35,36
 128 1152 128 1152 128 1168 c 2,0,-1
EndSplineSet
Colour: 6600
EndChar
StartChar: grave
Encoding: 96 96 65
Width: 1024
VWidth: 0
Flags: MW
LayerCount: 5
Back
Fore
SplineSet
592 1408 m 262,0,1
 608 1392 608 1392 592 1376 c 262,2,-1
 528 1312 l 262,3,4
 512 1296 512 1296 496 1312 c 262,5,-1
 272 1536 l 262,6,7
 256 1552 256 1552 272 1568 c 262,8,-1
 336 1632 l 262,9,10
 352 1648 352 1648 368 1632 c 262,11,-1
 592 1408 l 262,0,1
EndSplineSet
Validated: 1
Layer: 2
SplineSet
455 1607 m 6,0,-1
 626 1436 l 2,1,2
 640 1422 640 1422 626 1408 c 2,3,-1
 597 1380 l 2,4,5
 583 1366 583 1366 569 1380 c 2,6,-1
 398 1550 l 2,7,8
 384 1564 384 1564 398 1579 c 2,9,-1
 427 1607 l 2,10,11
 441 1621 441 1621 455 1607 c 6,0,-1
EndSplineSet
Layer: 3
SplineSet
455 1607 m 6,0,-1
 626 1436 l 2,1,2
 640 1422 640 1422 626 1408 c 2,3,-1
 597 1380 l 2,4,5
 583 1366 583 1366 569 1380 c 2,6,-1
 398 1550 l 2,7,8
 384 1564 384 1564 398 1579 c 2,9,-1
 427 1607 l 2,10,11
 441 1621 441 1621 455 1607 c 6,0,-1
EndSplineSet
Colour: 6600
EndChar
StartChar: d
Encoding: 100 100 69
Width: 1024
VWidth: 0
UnlinkRmOvrlpSave: 1
Flags: MW
LayerCount: 5
Back
Fore
SplineSet
752 768 m 282,0,1
 352 768 l 258,2,3
 320 768 320 768 288 736 c 256,4,5
 256 704 256 704 256 672 c 258,6,-1
 256 224 l 258,7,8
 256 192 256 192 288 160 c 256,9,10
 320 128 320 128 352 128 c 258,11,-1
 752 128 l 258,12,13
 768 128 768 128 768 144 c 258,14,-1
 768 752 l 258,15,16
 768 768 768 768 752 768 c 282,0,1
896 1264 m 258,17,-1
 896 16 l 258,18,19
 896 0 896 0 880 0 c 258,20,-1
 320 0 l 258,21,22
 256 0 256 0 192 64 c 256,23,24
 128 128 128 128 128 192 c 258,25,-1
 128 704 l 258,26,27
 128 768 128 768 192 832 c 256,28,29
 256 896 256 896 320 896 c 258,30,-1
 752 896 l 258,31,32
 768 896 768 896 768 912 c 258,33,-1
 768 1264 l 258,34,35
 768 1280 768 1280 784 1280 c 258,36,-1
 880 1280 l 258,37,38
 896 1280 896 1280 896 1264 c 258,17,-1
EndSplineSet
Layer: 2
SplineSet
811 839 m 2,0,1
 811 853 811 853 796 853 c 2,2,-1
 384 853 l 2,3,4
 327 853 327 853 270 796.5 c 128,-1,5
 213 740 213 740 213 683 c 2,6,-1
 213 256 l 2,7,8
 213 199 213 199 270 142 c 128,-1,9
 327 85 327 85 384 85 c 2,10,-1
 796 85 l 2,11,12
 810 85 810 85 811 100 c 2,13,-1
 811 839 l 2,0,1
896 14 m 2,14,15
 896 0 896 0 882 0 c 2,16,-1
 384 0 l 2,17,18
 299 0 299 0 213.5 85.5 c 128,-1,19
 128 171 128 171 128 256 c 2,20,-1
 128 683 l 2,21,22
 128 768 128 768 213.5 853.5 c 128,-1,23
 299 939 299 939 384 939 c 2,24,-1
 796 939 l 2,25,26
 810 939 810 939 811 953 c 2,27,-1
 811 1266 l 2,28,29
 811 1280 811 1280 825 1280 c 2,30,-1
 882 1280 l 2,31,32
 896 1280 896 1280 896 1266 c 2,33,-1
 896 14 l 2,14,15
EndSplineSet
Layer: 3
SplineSet
752 768 m 282,0,1
 336 768 l 258,2,3
 320 768 320 768 304 752 c 258,4,-1
 272 720 l 2,5,6
 256 704 256 704 256 688 c 258,7,-1
 256 208 l 258,8,9
 256 192 256 192 272 176 c 258,10,-1
 304 144 l 2,11,12
 320 128 320 128 336 128 c 258,13,-1
 752 128 l 258,14,15
 768 128 768 128 768 144 c 258,16,-1
 768 752 l 2,17,18
 768 768 768 768 752 768 c 282,0,1
896 1264 m 258,19,-1
 896 16 l 258,20,21
 896 0 896 0 880 0 c 258,22,-1
 288 0 l 258,23,24
 256 0 256 0 224 32 c 0,25,-1
 160 96 l 256,26,27
 128 128 128 128 128 160 c 258,28,-1
 128 736 l 258,29,30
 128 768 128 768 160 800 c 2,31,-1
 224 864 l 258,32,33
 256 896 256 896 288 896 c 258,34,-1
 752 896 l 258,35,36
 768 896 768 896 768 912 c 258,37,-1
 768 1264 l 258,38,39
 768 1280 768 1280 784 1280 c 258,40,-1
 880 1280 l 258,41,42
 896 1280 896 1280 896 1264 c 258,19,-1
EndSplineSet
Colour: 6600
EndChar
StartChar: n
Encoding: 110 110 79
Width: 1024
VWidth: 0
Flags: MW
LayerCount: 5
Back
Fore
SplineSet
784 0 m 258,0,1
 768 0 768 0 768 16 c 258,2,-1
 768 672 l 258,3,4
 768 704 768 704 736 736 c 256,5,6
 704 768 704 768 672 768 c 258,7,-1
 272 768 l 258,8,9
 256 768 256 768 256 752 c 258,10,-1
 256 16 l 258,11,12
 256 0 256 0 240 0 c 258,13,-1
 144 0 l 258,14,15
 128 0 128 0 128 16 c 258,16,-1
 128 880 l 258,17,18
 128 896 128 896 144 896 c 258,19,-1
 704 896 l 258,20,21
 768 896 768 896 832 832 c 256,22,23
 896 768 896 768 896 704 c 258,24,-1
 896 16 l 258,25,26
 896 0 896 0 880 0 c 258,27,-1
 784 0 l 258,0,1
EndSplineSet
Validated: 3073
Layer: 2
SplineSet
199 0 m 2,0,-1
 142 0 l 2,1,2
 128 0 128 0 128 14 c 2,3,-1
 128 924 l 2,4,5
 128 938 128 938 142 939 c 2,6,-1
 640 939 l 2,7,8
 725 939 725 939 810.5 853.5 c 128,-1,9
 896 768 896 768 896 683 c 2,10,-1
 896 14 l 2,11,12
 896 0 896 0 882 0 c 2,13,-1
 825 0 l 2,14,15
 811 0 811 0 811 14 c 2,16,-1
 811 683 l 2,17,18
 811 740 811 740 754 796.5 c 128,-1,19
 697 853 697 853 640 853 c 2,20,-1
 228 853 l 6,21,22
 214 853 214 853 213 839 c 2,23,-1
 213 14 l 2,24,25
 213 0 213 0 199 0 c 2,0,-1
EndSplineSet
Layer: 3
SplineSet
784 0 m 262,0,-1
 880 0 l 262,1,2
 896 0 896 0 896 16 c 262,3,-1
 896 736 l 262,4,5
 896 768 896 768 864 800 c 262,6,7
 800 864 l 262,8,9
 768 896 768 896 736 896 c 262,10,-1
 144 896 l 262,11,12
 128 896 128 896 128 880 c 262,13,-1
 128 16 l 262,14,15
 128 0 128 0 144 0 c 262,16,-1
 240 0 l 262,17,18
 256 0 256 0 256 16 c 262,19,-1
 256 752 l 262,20,21
 256 768 256 768 272 768 c 262,22,-1
 688 768 l 262,23,24
 704 768 704 768 720 752 c 262,25,-1
 752 720 l 262,26,27
 768 704 768 704 768 688 c 262,28,-1
 768 16 l 262,29,30
 768 0 768 0 784 0 c 262,0,-1
EndSplineSet
Colour: 6600
EndChar
StartChar: o
Encoding: 111 111 80
Width: 1024
VWidth: 0
Flags: MW
LayerCount: 5
Back
Fore
SplineSet
256 224 m 258,0,1
 256 192 256 192 288 160 c 256,2,3
 320 128 320 128 352 128 c 258,4,-1
 672 128 l 258,5,6
 704 128 704 128 736 160 c 256,7,8
 768 192 768 192 768 224 c 258,9,-1
 768 672 l 258,10,11
 768 704 768 704 736 736 c 256,12,13
 704 768 704 768 672 768 c 258,14,-1
 352 768 l 258,15,16
 320 768 320 768 288 736 c 256,17,18
 256 704 256 704 256 672 c 258,19,-1
 256 224 l 258,0,1
128 192 m 258,20,-1
 128 704 l 258,21,22
 128 768 128 768 192 832 c 256,23,24
 256 896 256 896 320 896 c 258,25,-1
 704 896 l 258,26,27
 768 896 768 896 832 832 c 256,28,29
 896 768 896 768 896 704 c 258,30,-1
 896 192 l 258,31,32
 896 128 896 128 832 64 c 256,33,34
 768 0 768 0 704 0 c 258,35,-1
 320 0 l 258,36,37
 256 0 256 0 192 64 c 256,38,39
 128 128 128 128 128 192 c 258,20,-1
EndSplineSet
Validated: 19457
Layer: 2
SplineSet
213 683 m 2,0,-1
 213 256 l 2,1,2
 213 199 213 199 270 142 c 128,-1,3
 327 85 327 85 384 85 c 2,4,-1
 640 85 l 2,5,6
 697 85 697 85 754 142 c 128,-1,7
 811 199 811 199 811 256 c 2,8,-1
 811 683 l 2,9,10
 811 740 811 740 754 796.5 c 128,-1,11
 697 853 697 853 640 853 c 2,12,-1
 384 853 l 2,13,14
 327 853 327 853 270 796.5 c 128,-1,15
 213 740 213 740 213 683 c 2,0,-1
128 256 m 2,16,-1
 128 683 l 2,17,18
 128 768 128 768 213.5 853.5 c 128,-1,19
 299 939 299 939 384 939 c 2,20,-1
 640 939 l 2,21,22
 725 939 725 939 810.5 853.5 c 128,-1,23
 896 768 896 768 896 683 c 2,24,-1
 896 256 l 2,25,26
 896 171 896 171 810.5 85.5 c 128,-1,27
 725 0 725 0 640 0 c 2,28,-1
 384 0 l 2,29,30
 299 0 299 0 213.5 85.5 c 128,-1,31
 128 171 128 171 128 256 c 2,16,-1
EndSplineSet
Layer: 3
SplineSet
256 208 m 258,0,1
 256 192 256 192 272 176 c 258,2,-1
 304 144 l 258,3,4
 320 128 320 128 336 128 c 258,5,-1
 688 128 l 258,6,7
 704 128 704 128 720 144 c 258,8,-1
 752 176 l 258,9,10
 768 192 768 192 768 208 c 258,11,-1
 768 688 l 262,12,13
 768 704 768 704 752 720 c 262,14,-1
 720 752 l 262,15,16
 704 768 704 768 688 768 c 262,17,-1
 336 768 l 262,18,19
 320 768 320 768 304 752 c 262,20,-1
 272 720 l 262,21,22
 256 704 256 704 256 688 c 262,23,-1
 256 208 l 258,0,1
128 160 m 258,24,-1
 128 736 l 262,25,26
 128 768 128 768 160 800 c 262,27,-1
 224 864 l 262,28,29
 256 896 256 896 288 896 c 262,30,-1
 736 896 l 262,31,32
 768 896 768 896 800 864 c 262,33,-1
 864 800 l 262,34,35
 896 768 896 768 896 736 c 262,36,-1
 896 160 l 258,37,38
 896 128 896 128 864 96 c 258,39,-1
 800 32 l 258,40,41
 768 0 768 0 736 0 c 258,42,-1
 288 0 l 258,43,44
 256 0 256 0 224 32 c 258,45,-1
 160 96 l 258,46,47
 128 128 128 128 128 160 c 258,24,-1
EndSplineSet
Colour: 6600
EndChar
StartChar: x
Encoding: 120 120 89
Width: 1024
VWidth: 0
Flags: MW
LayerCount: 5
Back
Fore
SplineSet
400 464 m 258,0,-1
 256 608 l 258,1,2
 128 736 128 736 128 864 c 258,3,-1
 128 880 l 258,4,5
 128 896 128 896 144 896 c 258,6,-1
 240 896 l 258,7,8
 256 896 256 896 256 880 c 258,9,-1
 256 864 l 258,10,11
 256 800 256 800 320 736 c 258,12,-1
 496 560 l 258,13,14
 512 544 512 544 528 560 c 258,15,-1
 704 736 l 258,16,17
 768 800 768 800 768 864 c 258,18,-1
 768 880 l 258,19,20
 768 896 768 896 784 896 c 258,21,-1
 880 896 l 258,22,23
 896 896 896 896 896 880 c 258,24,-1
 896 864 l 258,25,26
 896 736 896 736 768 608 c 258,27,-1
 624 464 l 258,28,29
 608 448 608 448 624 432 c 258,30,-1
 768 288 l 258,31,32
 896 160 896 160 896 32 c 258,33,-1
 896 16 l 258,34,35
 896 0 896 0 880 0 c 258,36,-1
 784 0 l 258,37,38
 768 0 768 0 768 16 c 258,39,-1
 768 32 l 258,40,41
 768 96 768 96 704 160 c 258,42,-1
 528 336 l 258,43,44
 512 352 512 352 496 336 c 258,45,-1
 320 160 l 258,46,47
 256 96 256 96 256 32 c 258,48,-1
 256 16 l 258,49,50
 256 0 256 0 240 0 c 258,51,-1
 144 0 l 258,52,53
 128 0 128 0 128 16 c 258,54,-1
 128 32 l 258,55,56
 128 160 128 160 256 288 c 258,57,-1
 400 432 l 258,58,59
 416 448 416 448 400 464 c 258,0,-1
EndSplineSet
Validated: 19457
Layer: 2
SplineSet
441 484 m 2,0,-1
 256 668 l 2,1,2
 128 796 128 796 128 924 c 0,3,4
 128 938 128 938 142 939 c 2,5,-1
 199 939 l 2,6,7
 213 939 213 939 213 924 c 0,8,9
 213 824 213 824 313 725 c 2,10,-1
 498 540 l 2,11,12
 512 526 512 526 526 540 c 2,13,-1
 711 725 l 2,14,15
 811 825 811 825 811 924 c 0,16,17
 811 938 811 938 825 939 c 2,18,-1
 882 939 l 2,19,20
 896 939 896 939 896 924 c 0,21,22
 896 796 896 796 768 668 c 2,23,-1
 583 484 l 2,24,25
 569 470 569 470 583 455 c 2,26,-1
 768 270 l 2,27,28
 896 142 896 142 896 14 c 0,29,30
 896 0 896 0 882 0 c 2,31,-1
 825 0 l 2,32,33
 811 0 811 0 811 14 c 0,34,35
 811 114 811 114 711 213 c 2,36,-1
 526 398 l 2,37,38
 512 412 512 412 498 398 c 2,39,-1
 313 213 l 2,40,41
 213 113 213 113 213 14 c 0,42,43
 213 0 213 0 199 0 c 2,44,-1
 142 0 l 2,45,46
 128 0 128 0 128 14 c 0,47,48
 128 142 128 142 256 270 c 2,49,-1
 441 455 l 2,50,51
 455 470 455 470 441 484 c 2,0,-1
EndSplineSet
Layer: 3
SplineSet
544 512 m 258,0,-1
 768 288 l 258,1,2
 896 160 896 160 896 32 c 258,3,-1
 896 16 l 258,4,5
 896 0 896 0 880 0 c 258,6,-1
 784 0 l 258,7,8
 768 0 768 0 768 16 c 258,9,-1
 768 32 l 258,10,11
 768 96 768 96 704 160 c 258,12,13
 528 336 l 258,14,15
 512 352 512 352 496 336 c 258,16,-1
 320 160 l 258,17,18
 256 96 256 96 256 32 c 258,19,-1
 256 16 l 258,20,21
 256 0 256 0 240 0 c 258,22,-1
 144 0 l 258,23,24
 128 0 128 0 128 16 c 258,25,-1
 128 32 l 258,26,27
 128 160 128 160 256 288 c 258,28,-1
 480 512 l 258,29,30
 512 544 512 544 544 512 c 258,0,-1
480 384 m 258,31,-1
 256 608 l 258,32,33
 128 736 128 736 128 864 c 258,34,-1
 128 880 l 258,35,36
 128 896 128 896 144 896 c 258,37,-1
 240 896 l 258,38,39
 256 896 256 896 256 880 c 258,40,-1
 256 864 l 258,41,42
 256 800 256 800 320 736 c 258,43,-1
 496 560 l 258,44,45
 512 544 512 544 528 560 c 258,46,-1
 704 736 l 258,47,48
 768 800 768 800 768 864 c 258,49,-1
 768 880 l 258,50,51
 768 896 768 896 784 896 c 258,52,-1
 880 896 l 258,53,54
 896 896 896 896 896 880 c 258,55,-1
 896 864 l 258,56,57
 896 736 896 736 768 608 c 258,58,-1
 544 384 l 258,59,60
 512 352 512 352 480 384 c 258,31,-1
EndSplineSet
Colour: 6600
EndChar
StartChar: bar
Encoding: 124 124 93
Width: 1024
VWidth: 0
Flags: MW
LayerCount: 5
Back
Fore
SplineSet
464 1280 m 262,0,-1
 560 1280 l 262,1,2
 576 1280 576 1280 576 1264 c 262,3,-1
 576 16 l 262,4,5
 576 0 576 0 560 0 c 262,6,-1
 464 0 l 262,7,8
 448 0 448 0 448 16 c 262,9,-1
 448 1264 l 262,10,11
 448 1280 448 1280 464 1280 c 262,0,-1
EndSplineSet
Validated: 19457
Layer: 2
SplineSet
484 1280 m 2,0,-1
 540 1280 l 2,1,2
 554 1280 554 1280 555 1266 c 2,3,-1
 555 14 l 2,4,5
 555 0 555 0 540 0 c 2,6,-1
 484 0 l 2,7,8
 470 0 470 0 469 14 c 6,9,-1
 469 1266 l 2,10,11
 470 1280 470 1280 484 1280 c 2,0,-1
EndSplineSet
Layer: 3
SplineSet
464 1280 m 258,0,-1
 560 1280 l 258,1,2
 576 1280 576 1280 576 1264 c 258,3,-1
 576 16 l 258,4,5
 576 0 576 0 560 0 c 262,6,-1
 464 0 l 258,7,8
 448 0 448 0 448 16 c 258,9,-1
 448 1264 l 258,10,11
 448 1280 448 1280 464 1280 c 258,0,-1
EndSplineSet
Colour: 6600
EndChar
StartChar: asciitilde
Encoding: 126 126 95
Width: 1024
VWidth: 0
Flags: MW
LayerCount: 5
Back
Fore
SplineSet
240 1024 m 258,0,-1
 144 1024 l 258,1,2
 128 1024 128 1024 128 1040 c 258,3,-1
 128 1248 l 258,4,5
 128 1280 128 1280 160 1312 c 257,6,7
 224 1376 l 258,8,9
 256 1408 256 1408 288 1408 c 258,10,-1
 416 1408 l 258,11,12
 448 1408 448 1408 480 1376 c 258,13,-1
 544 1312 l 258,14,15
 576 1280 576 1280 576 1248 c 258,16,-1
 576 1232 l 258,17,18
 576 1216 576 1216 592 1200 c 258,19,-1
 624 1168 l 258,20,21
 640 1152 640 1152 656 1152 c 258,22,-1
 688 1152 l 258,23,24
 704 1152 704 1152 720 1168 c 258,25,-1
 752 1200 l 258,26,27
 768 1216 768 1216 768 1232 c 258,28,-1
 768 1392 l 258,29,30
 768 1408 768 1408 784 1408 c 258,31,-1
 880 1408 l 258,32,33
 896 1408 896 1408 896 1392 c 258,34,-1
 896 1184 l 258,35,36
 896 1152 896 1152 864 1120 c 258,37,-1
 800 1056 l 258,38,39
 768 1024 768 1024 736 1024 c 258,40,-1
 608 1024 l 258,41,42
 576 1024 576 1024 544 1056 c 258,43,-1
 480 1120 l 258,44,45
 448 1152 448 1152 448 1184 c 258,46,-1
 448 1200 l 258,47,48
 448 1216 448 1216 432 1232 c 258,49,-1
 400 1264 l 258,50,51
 384 1280 384 1280 368 1280 c 258,52,-1
 336 1280 l 258,53,54
 320 1280 320 1280 304 1264 c 258,55,-1
 272 1232 l 258,56,57
 256 1216 256 1216 256 1200 c 258,58,-1
 256 1040 l 258,59,60
 256 1024 256 1024 240 1024 c 258,0,-1
EndSplineSet
Validated: 19457
Layer: 2
SplineSet
199 1109 m 6,0,-1
 142 1109 l 6,1,2
 128 1109 128 1109 128 1124 c 6,3,-1
 128 1323 l 6,4,5
 128 1366 128 1366 170.5 1408.5 c 132,-1,6
 213 1451 213 1451 256 1451 c 6,7,-1
 427 1451 l 6,8,9
 470 1451 470 1451 512.5 1408 c 132,-1,10
 555 1365 555 1365 555 1323 c 6,11,-1
 555 1237 l 6,12,13
 555 1223 555 1223 569 1209 c 132,-1,14
 583 1195 583 1195 597 1195 c 6,15,-1
 768 1195 l 6,16,17
 782 1195 782 1195 796.5 1209 c 132,-1,18
 811 1223 811 1223 811 1237 c 6,19,-1
 811 1436 l 6,20,21
 811 1450 811 1450 825 1451 c 6,22,-1
 882 1451 l 6,23,24
 896 1451 896 1451 896 1436 c 6,25,-1
 896 1237 l 6,26,27
 896 1194 896 1194 853.5 1151.5 c 132,-1,28
 811 1109 811 1109 768 1109 c 6,29,-1
 597 1109 l 6,30,31
 554 1109 554 1109 511.5 1152 c 132,-1,32
 469 1195 469 1195 469 1237 c 6,33,-1
 469 1323 l 6,34,35
 469 1337 469 1337 455 1351 c 132,-1,36
 441 1365 441 1365 427 1365 c 6,37,-1
 256 1365 l 6,38,39
 242 1365 242 1365 227.5 1351 c 132,-1,40
 213 1337 213 1337 213 1323 c 6,41,-1
 213 1124 l 6,42,43
 213 1109 213 1109 199 1109 c 6,0,-1
EndSplineSet
Layer: 3
SplineSet
241 1024 m 258,0,-1
 142 1024 l 258,1,2
 128 1024 128 1024 128 1039 c 258,3,-1
 128 1280 l 258,4,5
 128 1324 128 1324 170 1366 c 256,6,7
 212 1408 212 1408 256 1408 c 258,8,-1
 448 1408 l 258,9,10
 492 1408 492 1408 534 1365 c 256,11,12
 576 1322 576 1322 576 1280 c 258,13,-1
 576 1195 l 258,14,15
 576 1181 576 1181 590 1167 c 256,16,17
 604 1153 604 1153 618 1153 c 258,18,-1
 725 1153 l 258,19,20
 740 1153 740 1153 754 1167 c 256,21,22
 768 1181 768 1181 768 1195 c 258,23,-1
 768 1393 l 258,24,25
 768 1408 768 1408 782 1408 c 258,26,-1
 882 1408 l 258,27,28
 896 1408 896 1408 896 1393 c 258,29,-1
 896 1152 l 258,30,31
 896 1108 896 1108 854 1066 c 256,32,33
 812 1024 812 1024 768 1024 c 258,34,-1
 575 1024 l 258,35,36
 532 1024 532 1024 490 1067 c 256,37,38
 448 1110 448 1110 447 1152 c 258,39,-1
 447 1238 l 258,40,41
 447 1252 447 1252 433 1266 c 256,42,43
 419 1280 419 1280 405 1280 c 258,44,-1
 298 1280 l 258,45,46
 284 1280 284 1280 270 1266 c 256,47,48
 256 1252 256 1252 255 1238 c 258,49,-1
 255 1039 l 258,50,51
 255 1024 255 1024 241 1024 c 258,0,-1
EndSplineSet
Colour: 6600
EndChar
StartChar: sterling
Encoding: 163 163 99
Width: 1024
VWidth: 0
Flags: MW
LayerCount: 5
Back
Fore
SplineSet
320 1216 m 256,0,1
 384 1280 384 1280 448 1280 c 258,2,-1
 640 1280 l 258,3,4
 704 1280 704 1280 768 1216 c 256,5,6
 832 1152 832 1152 832 1088 c 258,7,-1
 832 1040 l 258,8,9
 832 1024 832 1024 816 1024 c 258,10,-1
 720 1024 l 258,11,12
 704 1024 704 1024 704 1040 c 258,13,-1
 704 1056 l 258,14,15
 704 1088 704 1088 672 1120 c 256,16,17
 640 1152 640 1152 608 1152 c 258,18,-1
 480 1152 l 258,19,20
 448 1152 448 1152 416 1120 c 256,21,22
 384 1088 384 1088 384 1056 c 258,23,-1
 384 720 l 258,24,25
 384 704 384 704 400 704 c 258,26,-1
 688 704 l 258,27,28
 704 704 704 704 704 688 c 258,29,-1
 704 592 l 258,30,31
 704 576 704 576 688 576 c 258,32,-1
 400 576 l 258,33,34
 384 576 384 576 384 560 c 258,35,-1
 384 144 l 258,36,37
 384 128 384 128 400 128 c 258,38,-1
 752 128 l 258,39,40
 768 128 768 128 768 144 c 258,41,-1
 768 240 l 258,42,43
 768 256 768 256 784 256 c 258,44,-1
 880 256 l 258,45,46
 896 256 896 256 896 240 c 258,47,-1
 896 16 l 258,48,49
 896 0 896 0 880 0 c 258,50,-1
 144 0 l 258,51,52
 128 0 128 0 128 16 c 258,53,-1
 128 112 l 258,54,55
 128 128 128 128 144 128 c 258,56,-1
 240 128 l 258,57,58
 256 128 256 128 256 144 c 258,59,-1
 256 560 l 258,60,61
 256 576 256 576 240 576 c 258,62,-1
 144 576 l 258,63,64
 128 576 128 576 128 592 c 258,65,-1
 128 688 l 258,66,67
 128 704 128 704 144 704 c 258,68,-1
 240 704 l 258,69,70
 256 704 256 704 256 720 c 258,71,-1
 256 1088 l 258,72,73
 256 1152 256 1152 320 1216 c 256,0,1
EndSplineSet
Validated: 1
Colour: 6600
EndChar
StartChar: currency
Encoding: 164 164 100
Width: 1024
VWidth: 0
Flags: MW
LayerCount: 5
Back
Fore
SplineSet
640 960 m 257,0,-1
 640 960 l 257,1,2
 640 1040 640 1040 721 1121 c 258,3,-1
 800 1200 l 258,4,5
 816 1216 816 1216 832 1200 c 258,6,-1
 896 1136 l 258,7,8
 912 1120 912 1120 896 1104 c 258,9,-1
 848 1056 l 258,10,11
 768 976 768 976 768 896 c 257,12,13
 768 896 l 257,14,15
 832 832 832 832 832 768 c 258,16,-1
 832 512 l 258,17,18
 832 448 832 448 768 384 c 257,19,-1
 768 384 l 257,20,21
 768 304 768 304 848 224 c 258,22,-1
 896 176 l 258,23,24
 912 160 912 160 896 144 c 258,25,-1
 832 80 l 258,26,27
 816 64 816 64 800 80 c 258,28,-1
 721 159 l 258,29,30
 640 240 640 240 640 320 c 257,31,-1
 384 320 l 257,32,33
 384 240 384 240 303 159 c 258,34,-1
 224 80 l 258,35,36
 208 64 208 64 192 80 c 258,37,-1
 128 144 l 258,38,39
 112 160 112 160 128 176 c 258,40,-1
 176 224 l 258,41,42
 256 304 256 304 256 384 c 257,43,-1
 256 384 l 257,44,-1
 256 384 l 273,45,46
 192 448 192 448 192 512 c 258,47,-1
 192 768 l 258,48,49
 192 832 192 832 256 896 c 257,50,-1
 256 896 l 257,51,52
 256 976 256 976 176 1056 c 258,53,-1
 128 1104 l 258,54,55
 112 1120 112 1120 128 1136 c 258,56,-1
 192 1200 l 258,57,58
 208 1216 208 1216 224 1200 c 258,59,-1
 303 1121 l 258,60,61
 384 1040 384 1040 384 960 c 257,62,-1
 384 960 l 257,63,-1
 640 960 l 257,0,-1
352 800 m 256,64,65
 320 768 320 768 320 736 c 258,66,-1
 320 544 l 258,67,68
 320 512 320 512 352 480 c 256,69,70
 384 448 384 448 416 448 c 258,71,-1
 608 448 l 258,72,73
 640 448 640 448 672 480 c 256,74,75
 704 512 704 512 704 544 c 258,76,-1
 704 736 l 258,77,78
 704 768 704 768 672 800 c 256,79,80
 640 832 640 832 608 832 c 258,81,-1
 416 832 l 258,82,83
 384 832 384 832 352 800 c 256,64,65
EndSplineSet
Validated: 5
Colour: 6600
EndChar
StartChar: section
Encoding: 167 167 103
Width: 1024
VWidth: 0
Flags: MW
LayerCount: 5
Back
Fore
SplineSet
192 512 m 258,0,-1
 192 832 l 258,1,2
 192 896 192 896 256 960 c 257,3,4
 192 1024 192 1024 192 1088 c 258,5,-1
 192 1216 l 258,6,7
 192 1280 192 1280 256 1344 c 256,8,9
 320 1408 320 1408 384 1408 c 258,10,-1
 576 1408 l 258,11,12
 640 1408 640 1408 704 1344 c 256,13,14
 768 1280 768 1280 768 1216 c 258,15,-1
 768 1168 l 258,16,17
 768 1152 768 1152 752 1152 c 258,18,-1
 656 1152 l 258,19,20
 640 1152 640 1152 640 1168 c 258,21,-1
 640 1184 l 258,22,23
 640 1216 640 1216 608 1248 c 256,24,25
 576 1280 576 1280 544 1280 c 258,26,-1
 416 1280 l 258,27,28
 384 1280 384 1280 352 1248 c 256,29,30
 320 1216 320 1216 320 1184 c 258,31,-1
 320 1120 l 258,32,33
 320 1088 320 1088 352 1056 c 256,34,35
 384 1024 384 1024 416 1024 c 258,36,-1
 576 1024 l 258,37,38
 640 1024 640 1024 704 960 c 256,39,40
 768 896 768 896 768 832 c 258,41,-1
 768 512 l 258,42,43
 768 448 768 448 704 384 c 257,44,45
 768 320 768 320 768 256 c 258,46,-1
 768 128 l 258,47,48
 768 64 768 64 704 0 c 256,49,50
 640 -64 640 -64 576 -64 c 258,51,-1
 384 -64 l 258,52,53
 320 -64 320 -64 256 0 c 256,54,55
 192 64 192 64 192 128 c 258,56,-1
 192 176 l 258,57,58
 192 192 192 192 208 192 c 258,59,-1
 304 192 l 258,60,61
 320 192 320 192 320 176 c 258,62,-1
 320 160 l 258,63,64
 320 128 320 128 352 96 c 256,65,66
 384 64 384 64 416 64 c 258,67,-1
 544 64 l 258,68,69
 576 64 576 64 608 96 c 256,70,71
 640 128 640 128 640 160 c 258,72,-1
 640 224 l 258,73,74
 640 256 640 256 608 288 c 256,75,76
 576 320 576 320 544 320 c 258,77,-1
 384 320 l 258,78,79
 320 320 320 320 256 384 c 256,80,81
 192 448 192 448 192 512 c 258,0,-1
416 896 m 258,82,83
 384 896 384 896 352 864 c 256,84,85
 320 832 320 832 320 800 c 258,86,-1
 320 544 l 258,87,88
 320 512 320 512 352 480 c 256,89,90
 384 448 384 448 416 448 c 258,91,-1
 544 448 l 258,92,93
 576 448 576 448 608 480 c 256,94,95
 640 512 640 512 640 544 c 258,96,-1
 640 800 l 258,97,98
 640 832 640 832 608 864 c 256,99,100
 576 896 576 896 544 896 c 258,101,-1
 416 896 l 258,82,83
EndSplineSet
Validated: 1
Colour: 6600
EndChar
StartChar: copyright
Encoding: 169 169 105
Width: 1024
VWidth: 0
Flags: MW
LayerCount: 5
Back
Fore
SplineSet
640 768 m 258,0,-1
 640 784 l 258,1,2
 640 800 640 800 624 816 c 256,3,4
 608 832 608 832 592 832 c 258,5,-1
 432 832 l 258,6,7
 416 832 416 832 400 816 c 256,8,9
 384 800 384 800 384 784 c 258,10,-1
 384 496 l 258,11,12
 384 480 384 480 400 464 c 256,13,14
 416 448 416 448 432 448 c 258,15,-1
 592 448 l 258,16,17
 608 448 608 448 624 464 c 256,18,19
 640 480 640 480 640 496 c 258,20,-1
 640 512 l 258,21,22
 640 528 640 528 656 528 c 258,23,-1
 752 528 l 258,24,25
 768 528 768 528 768 512 c 258,26,-1
 768 416 l 258,27,28
 768 384 768 384 736 352 c 256,29,30
 704 320 704 320 672 320 c 258,31,-1
 352 320 l 258,32,33
 320 320 320 320 288 352 c 256,34,35
 256 384 256 384 256 416 c 258,36,-1
 256 864 l 258,37,38
 256 896 256 896 288 928 c 256,39,40
 320 960 320 960 352 960 c 258,41,-1
 672 960 l 258,42,43
 704 960 704 960 736 928 c 256,44,45
 768 896 768 896 768 864 c 258,46,-1
 768 768 l 258,47,48
 768 752 768 752 752 752 c 258,49,-1
 656 752 l 258,50,51
 640 752 640 752 640 768 c 258,0,-1
192 352 m 258,52,53
 192 320 192 320 224 288 c 256,54,55
 256 256 256 256 288 256 c 258,56,-1
 736 256 l 258,57,58
 768 256 768 256 800 288 c 256,59,60
 832 320 832 320 832 352 c 258,61,-1
 832 928 l 258,62,63
 832 960 832 960 800 992 c 256,64,65
 768 1024 768 1024 736 1024 c 258,66,-1
 288 1024 l 258,67,68
 256 1024 256 1024 224 992 c 256,69,70
 192 960 192 960 192 928 c 258,71,-1
 192 352 l 258,52,53
64 320 m 258,72,-1
 64 960 l 258,73,74
 64 1024 64 1024 128 1088 c 256,75,76
 192 1152 192 1152 256 1152 c 258,77,-1
 768 1152 l 258,78,79
 832 1152 832 1152 896 1088 c 256,80,81
 960 1024 960 1024 960 960 c 258,82,-1
 960 320 l 258,83,84
 960 256 960 256 896 192 c 256,85,86
 832 128 832 128 768 128 c 258,87,-1
 256 128 l 258,88,89
 192 128 192 128 128 192 c 256,90,91
 64 256 64 256 64 320 c 258,72,-1
EndSplineSet
Validated: 3073
Colour: 6600
EndChar
StartChar: ordfeminine
Encoding: 170 170 106
Width: 1024
VWidth: 0
Flags: MW
LayerCount: 5
Back
Fore
SplineSet
320 1056 m 280
 320 1024 320 1024 352 992 c 256
 384 960 384 960 416 960 c 258
 688 960 l 258
 704 960 704 960 704 976 c 258
 704 1136 l 258
 704 1152 704 1152 688 1152 c 258
 416 1152 l 258
 384 1152 384 1152 352 1120 c 256
 320 1088 320 1088 320 1056 c 280
192 1024 m 258
 192 1088 l 258
 192 1152 192 1152 256 1216 c 256
 320 1280 320 1280 384 1280 c 258
 688 1280 l 258
 704 1280 704 1280 704 1296 c 258
 704 1312 l 258
 704 1344 704 1344 672 1376 c 256
 640 1408 640 1408 608 1408 c 258
 272 1408 l 262
 256 1408 256 1408 256 1424 c 262
 256 1520 l 262
 256 1536 256 1536 272 1536 c 262
 640 1536 l 258
 704 1536 704 1536 768 1472 c 256
 832 1408 832 1408 832 1344 c 258
 832 848 l 258
 832 832 832 832 816 832 c 258
 384 832 l 258
 320 832 320 832 256 896 c 256
 192 960 192 960 192 1024 c 258
EndSplineSet
Refer: 109 173 N 1 0 0 1 0 0 2
Validated: 35841
Colour: 6600
EndChar
StartChar: logicalnot
Encoding: 172 172 108
Width: 1024
VWidth: 0
Flags: MW
LayerCount: 5
Back
Fore
SplineSet
144 896 m 258,0,-1
 880 896 l 258,1,2
 896 896 896 896 896 880 c 258,3,-1
 896 400 l 258,4,5
 896 384 896 384 880 384 c 258,6,-1
 784 384 l 258,7,8
 768 384 768 384 768 400 c 258,9,-1
 768 752 l 258,10,11
 768 768 768 768 752 768 c 258,12,-1
 144 768 l 258,13,14
 128 768 128 768 128 784 c 258,15,-1
 128 880 l 258,16,17
 128 896 128 896 144 896 c 258,0,-1
EndSplineSet
Validated: 1
Colour: 6600
EndChar
StartChar: macron
Encoding: 175 175 111
Width: 1024
VWidth: 0
Flags: MW
LayerCount: 5
Back
Fore
SplineSet
272 1536 m 262,0,-1
 752 1536 l 262,1,2
 768 1536 768 1536 768 1520 c 262,3,-1
 768 1424 l 262,4,5
 768 1408 768 1408 752 1408 c 262,6,-1
 272 1408 l 262,7,8
 256 1408 256 1408 256 1424 c 262,9,-1
 256 1520 l 262,10,11
 256 1536 256 1536 272 1536 c 262,0,-1
EndSplineSet
Validated: 3073
Layer: 2
Refer: 109 173 N 1 0 0 1 0 853 2
Layer: 3
Refer: 109 173 N 1 0 0 1 0 853 2
Colour: 6600
EndChar
StartChar: twosuperior
Encoding: 178 178 114
Width: 1024
VWidth: 0
Flags: MW
LayerCount: 5
Back
Fore
SplineSet
256 1264 m 258,0,-1
 256 1408 l 258,1,2
 256 1440 256 1440 288 1472 c 256,3,4
 320 1504 320 1504 352 1504 c 258,5,-1
 672 1504 l 258,6,7
 704 1504 704 1504 736 1472 c 256,8,9
 768 1440 768 1440 768 1408 c 258,10,-1
 768 1264 l 258,11,12
 768 1184 768 1184 688 1104 c 258,13,-1
 496 912 l 258,14,15
 480 896 480 896 480 880 c 256,16,17
 480 864 480 864 496 864 c 258,18,-1
 752 864 l 258,19,20
 768 864 768 864 768 848 c 258,21,-1
 768 752 l 258,22,23
 768 736 768 736 752 736 c 258,24,-1
 272 736 l 258,25,26
 256 736 256 736 256 752 c 258,27,-1
 256 800 l 258,28,29
 256 864 256 864 320 928 c 258,30,-1
 576 1184 l 258,31,32
 640 1248 640 1248 640 1312 c 258,33,-1
 640 1328 l 258,34,35
 640 1344 640 1344 624 1360 c 256,36,37
 608 1376 608 1376 592 1376 c 258,38,-1
 432 1376 l 258,39,40
 416 1376 416 1376 400 1360 c 256,41,42
 384 1344 384 1344 384 1328 c 258,43,-1
 384 1264 l 258,44,45
 384 1248 384 1248 368 1248 c 258,46,-1
 272 1248 l 258,47,48
 256 1248 256 1248 256 1264 c 258,0,-1
EndSplineSet
Validated: 3073
Layer: 2
SplineSet
256 1195 m 25,0,-1
 256 1365 l 25,1,-1
 341 1451 l 25,2,-1
 683 1451 l 25,3,-1
 768 1365 l 25,4,-1
 768 1166 l 25,5,-1
 370 768 l 29,6,-1
 768 768 l 25,7,-1
 768 683 l 25,8,-1
 256 683 l 25,9,-1
 256 768 l 25,10,-1
 683 1195 l 25,11,-1
 683 1337 l 25,12,-1
 654 1365 l 25,13,-1
 370 1365 l 25,14,-1
 341 1337 l 25,15,-1
 341 1195 l 25,16,-1
 256 1195 l 25,0,-1
EndSplineSet
Layer: 3
SplineSet
256 1195 m 25,0,-1
 256 1365 l 25,1,-1
 341 1451 l 25,2,-1
 683 1451 l 25,3,-1
 768 1365 l 25,4,-1
 768 1166 l 25,5,-1
 370 768 l 29,6,-1
 768 768 l 25,7,-1
 768 683 l 25,8,-1
 256 683 l 25,9,-1
 256 768 l 25,10,-1
 683 1195 l 25,11,-1
 683 1337 l 25,12,-1
 654 1365 l 25,13,-1
 370 1365 l 25,14,-1
 341 1337 l 25,15,-1
 341 1195 l 25,16,-1
 256 1195 l 25,0,-1
EndSplineSet
Colour: 6600
EndChar
StartChar: paragraph
Encoding: 182 182 118
Width: 1024
VWidth: 0
Flags: MW
LayerCount: 5
Back
Fore
SplineSet
576 16 m 262,0,1
 576 0 576 0 560 0 c 262,2,-1
 464 0 l 262,3,4
 448 0 448 0 448 16 c 262,5,-1
 448 560 l 262,6,7
 448 576 448 576 432 576 c 262,8,-1
 256 576 l 262,9,10
 192 576 192 576 128 640 c 260,11,12
 64 704 64 704 64 768 c 262,13,-1
 64 1088 l 262,14,15
 64 1152 64 1152 128 1216 c 260,16,17
 192 1280 192 1280 256 1280 c 262,18,-1
 880 1280 l 262,19,20
 896 1280 896 1280 896 1264 c 262,21,-1
 896 16 l 262,22,23
 896 0 896 0 880 0 c 262,24,-1
 784 0 l 262,25,26
 768 0 768 0 768 16 c 262,27,-1
 768 1136 l 262,28,29
 768 1152 768 1152 752 1152 c 262,30,-1
 592 1152 l 262,31,32
 576 1152 576 1152 576 1136 c 262,33,-1
 576 16 l 262,0,1
432 704 m 262,34,35
 448 704 448 704 448 720 c 262,36,-1
 448 1136 l 262,37,38
 448 1152 448 1152 432 1152 c 262,39,-1
 288 1152 l 262,40,41
 256 1152 256 1152 224 1120 c 260,42,43
 192 1088 192 1088 192 1056 c 262,44,-1
 192 800 l 262,45,46
 192 768 192 768 224 736 c 260,47,48
 256 704 256 704 288 704 c 262,49,-1
 432 704 l 262,34,35
EndSplineSet
Validated: 1
Colour: 6600
EndChar
StartChar: ccedilla
Encoding: 231 231 167
Width: 1024
VWidth: 0
Flags: MW
LayerCount: 5
Back
Fore
Refer: 1062 807 S 1 0 0 1 0 0 2
Refer: 68 99 N 1 0 0 1 0 0 2
Validated: 32773
Layer: 2
SplineSet
441 0 m 6,0,-1
 498 0 l 6,1,2
 512 0 512 0 512 -14 c 6,3,-1
 512 -128 l 6,4,5
 512 -228 512 -228 412 -327 c 4,6,7
 398 -341 398 -341 384 -327 c 6,8,-1
 356 -299 l 6,9,10
 342 -285 342 -285 356 -270 c 4,11,12
 427 -199 427 -199 427 -128 c 6,13,-1
 427 -14 l 6,14,15
 427 0 427 0 441 0 c 6,0,-1
EndSplineSet
Refer: 68 99 N 1 0 0 1 0 0 2
Layer: 3
SplineSet
473 0 m 258,0,-1
 569 0 l 258,1,2
 585 0 585 0 585 -16 c 258,3,-1
 585 -128 l 258,4,5
 585 -256 585 -256 457 -384 c 256,6,7
 441 -400 441 -400 425 -384 c 258,8,-1
 361 -320 l 258,9,10
 345 -304 345 -304 361 -288 c 258,11,-1
 393 -256 l 258,12,13
 457 -192 457 -192 457 -128 c 258,14,-1
 457 -16 l 258,15,16
 457 0 457 0 473 0 c 258,0,-1
EndSplineSet
Refer: 68 99 N 1 0 0 1 0 0 2
Colour: 6600
EndChar
StartChar: eth
Encoding: 240 240 176
Width: 1024
VWidth: 0
Flags: MW
LayerCount: 5
Back
Fore
SplineSet
128 192 m 262,0,-1
 128 704 l 262,1,2
 128 768 128 768 192 832 c 260,3,4
 256 896 256 896 320 896 c 262,5,-1
 528 896 l 262,6,7
 544 896 544 896 544 912 c 260,8,9
 544 928 544 928 528 944 c 262,10,-1
 400 1072 l 262,11,12
 384 1088 384 1088 368 1072 c 262,13,-1
 304 1008 l 262,14,15
 288 992 288 992 272 1008 c 262,16,-1
 208 1072 l 262,17,18
 192 1088 192 1088 208 1104 c 262,19,-1
 272 1168 l 262,20,21
 288 1184 288 1184 272 1200 c 262,22,-1
 208 1264 l 262,23,24
 192 1280 192 1280 208 1296 c 262,25,-1
 272 1360 l 262,26,27
 288 1376 288 1376 304 1360 c 262,28,-1
 368 1296 l 262,29,30
 384 1280 384 1280 400 1296 c 262,31,-1
 464 1360 l 262,32,33
 480 1376 480 1376 496 1360 c 262,34,-1
 560 1296 l 262,35,36
 576 1280 576 1280 560 1264 c 262,37,-1
 496 1200 l 262,38,39
 480 1184 480 1184 496 1168 c 262,40,-1
 832 832 l 262,41,42
 896 768 896 768 896 704 c 262,43,-1
 896 192 l 262,44,45
 896 128 896 128 832 64 c 260,46,47
 768 0 768 0 704 0 c 262,48,-1
 320 0 l 262,49,50
 256 0 256 0 192 64 c 260,51,52
 128 128 128 128 128 192 c 262,0,-1
256 224 m 262,53,54
 256 192 256 192 288 160 c 260,55,56
 320 128 320 128 352 128 c 262,57,-1
 672 128 l 262,58,59
 704 128 704 128 736 160 c 260,60,61
 768 192 768 192 768 224 c 262,62,-1
 768 672 l 262,63,64
 768 704 768 704 736 736 c 260,65,66
 704 768 704 768 672 768 c 262,67,-1
 352 768 l 262,68,69
 320 768 320 768 288 736 c 260,70,71
 256 704 256 704 256 672 c 262,72,-1
 256 224 l 262,53,54
EndSplineSet
Validated: 1
Colour: 6600
EndChar
StartChar: IJ
Encoding: 306 306 242
Width: 1024
VWidth: 0
UnlinkRmOvrlpSave: 1
Flags: MW
LayerCount: 5
Back
Fore
SplineSet
992 1264 m 262,0,-1
 992 1168 l 262,1,2
 992 1152 992 1152 976 1152 c 262,3,-1
 944 1152 l 262,4,5
 928 1152 928 1152 928 1136 c 262,6,-1
 928 192 l 262,7,8
 928 128 928 128 864 64 c 260,9,10
 800 0 800 0 736 0 c 262,11,-1
 608 0 l 262,12,13
 544 0 544 0 480 64 c 260,14,15
 416 128 416 128 416 192 c 262,16,-1
 416 368 l 262,17,18
 416 384 416 384 432 384 c 262,19,-1
 528 384 l 262,20,21
 544 384 544 384 544 368 c 262,22,-1
 544 224 l 262,23,24
 544 192 544 192 576 160 c 260,25,26
 608 128 608 128 640 128 c 262,27,-1
 704 128 l 262,28,29
 736 128 736 128 768 160 c 260,30,31
 800 192 800 192 800 224 c 262,32,-1
 800 1136 l 262,33,34
 800 1152 800 1152 784 1152 c 262,35,-1
 752 1152 l 262,36,37
 736 1152 736 1152 736 1168 c 262,38,-1
 736 1264 l 262,39,40
 736 1280 736 1280 752 1280 c 262,41,-1
 976 1280 l 262,42,43
 992 1280 992 1280 992 1264 c 262,0,-1
48 1280 m 262,44,-1
 272 1280 l 262,45,46
 288 1280 288 1280 288 1264 c 262,47,-1
 288 1168 l 262,48,49
 288 1152 288 1152 272 1152 c 262,50,-1
 240 1152 l 262,51,52
 224 1152 224 1152 224 1136 c 262,53,-1
 224 144 l 262,54,55
 224 128 224 128 240 128 c 262,56,-1
 272 128 l 262,57,58
 288 128 288 128 288 112 c 262,59,-1
 288 16 l 262,60,61
 288 0 288 0 272 0 c 262,62,-1
 48 0 l 262,63,64
 32 0 32 0 32 16 c 262,65,-1
 32 112 l 262,66,67
 32 128 32 128 48 128 c 262,68,-1
 80 128 l 262,69,70
 96 128 96 128 96 144 c 262,71,-1
 96 1136 l 262,72,73
 96 1152 96 1152 80 1152 c 262,74,-1
 48 1152 l 262,75,76
 32 1152 32 1152 32 1168 c 262,77,-1
 32 1264 l 262,78,79
 32 1280 32 1280 48 1280 c 262,44,-1
EndSplineSet
Layer: 2
SplineSet
14 1280 m 2,0,-1
 242 1280 l 2,1,2
 256 1280 256 1280 256 1266 c 2,3,-1
 256 1209 l 2,4,5
 256 1195 256 1195 242 1195 c 2,6,-1
 185 1195 l 2,7,8
 171 1195 171 1195 171 1180 c 2,9,-1
 171 100 l 2,10,11
 171 86 171 86 185 85 c 2,12,-1
 242 85 l 2,13,14
 256 85 256 85 256 71 c 2,15,-1
 256 14 l 2,16,17
 256 0 256 0 242 0 c 2,18,-1
 14 0 l 2,19,20
 0 0 0 0 0 14 c 2,21,-1
 0 71 l 2,22,23
 0 85 0 85 14 85 c 2,24,-1
 71 85 l 2,25,26
 85 85 85 85 85 100 c 2,27,-1
 85 1180 l 2,28,29
 85 1194 85 1194 71 1195 c 2,30,-1
 14 1195 l 2,31,32
 0 1195 0 1195 0 1209 c 2,33,-1
 0 1266 l 2,34,35
 0 1280 0 1280 14 1280 c 2,0,-1
EndSplineSet
Refer: 43 74 N 1 0 0 1 0 0 2
Layer: 3
SplineSet
14 1280 m 2,0,-1
 242 1280 l 2,1,2
 256 1280 256 1280 256 1266 c 2,3,-1
 256 1209 l 2,4,5
 256 1195 256 1195 242 1195 c 2,6,-1
 185 1195 l 2,7,8
 171 1195 171 1195 171 1180 c 2,9,-1
 171 100 l 2,10,11
 171 86 171 86 185 85 c 2,12,-1
 242 85 l 2,13,14
 256 85 256 85 256 71 c 2,15,-1
 256 14 l 2,16,17
 256 0 256 0 242 0 c 2,18,-1
 14 0 l 2,19,20
 0 0 0 0 0 14 c 2,21,-1
 0 71 l 2,22,23
 0 85 0 85 14 85 c 2,24,-1
 71 85 l 2,25,26
 85 85 85 85 85 100 c 2,27,-1
 85 1180 l 2,28,29
 85 1194 85 1194 71 1195 c 2,30,-1
 14 1195 l 2,31,32
 0 1195 0 1195 0 1209 c 2,33,-1
 0 1266 l 2,34,35
 0 1280 0 1280 14 1280 c 2,0,-1
EndSplineSet
Refer: 43 74 N 1 0 0 1 0 0 2
Colour: 6600
EndChar
StartChar: ij
Encoding: 307 307 243
Width: 1024
VWidth: 0
Flags: MW
LayerCount: 5
Back
Fore
SplineSet
80 896 m 262,0,-1
 240 896 l 262,1,2
 256 896 256 896 256 880 c 262,3,-1
 256 144 l 262,4,5
 256 128 256 128 272 128 c 262,6,-1
 304 128 l 262,7,8
 320 128 320 128 320 112 c 262,9,-1
 320 16 l 262,10,11
 320 0 320 0 304 0 c 262,12,-1
 80 0 l 262,13,14
 64 0 64 0 64 16 c 262,15,-1
 64 112 l 262,16,17
 64 128 64 128 80 128 c 262,18,-1
 112 128 l 262,19,20
 128 128 128 128 128 144 c 262,21,-1
 128 752 l 262,22,23
 128 768 128 768 112 768 c 262,24,-1
 80 768 l 262,25,26
 64 768 64 768 64 784 c 262,27,-1
 64 880 l 262,28,29
 64 896 64 896 80 896 c 262,0,-1
144 1280 m 262,30,-1
 240 1280 l 262,31,32
 256 1280 256 1280 256 1264 c 262,33,-1
 256 1040 l 262,34,35
 256 1024 256 1024 240 1024 c 262,36,-1
 144 1024 l 262,37,38
 128 1024 128 1024 128 1040 c 262,39,-1
 128 1264 l 262,40,41
 128 1280 128 1280 144 1280 c 262,30,-1
848 1280 m 262,42,-1
 944 1280 l 262,43,44
 960 1280 960 1280 960 1264 c 262,45,-1
 960 1040 l 262,46,47
 960 1024 960 1024 944 1024 c 262,48,-1
 848 1024 l 262,49,50
 832 1024 832 1024 832 1040 c 262,51,-1
 832 1264 l 262,52,53
 832 1280 832 1280 848 1280 c 262,42,-1
960 880 m 262,54,-1
 960 -128 l 262,55,56
 960 -192 960 -192 896 -256 c 260,57,58
 832 -320 832 -320 768 -320 c 262,59,-1
 640 -320 l 262,60,61
 576 -320 576 -320 512 -256 c 260,62,63
 448 -192 448 -192 448 -128 c 262,64,-1
 448 -16 l 262,65,66
 448 0 448 0 464 0 c 262,67,-1
 560 0 l 262,68,69
 576 0 576 0 576 -16 c 262,70,-1
 576 -96 l 262,71,72
 576 -128 576 -128 608 -160 c 260,73,74
 640 -192 640 -192 672 -192 c 262,75,-1
 736 -192 l 262,76,77
 768 -192 768 -192 800 -160 c 260,78,79
 832 -128 832 -128 832 -96 c 262,80,-1
 832 752 l 262,81,82
 832 768 832 768 816 768 c 262,83,-1
 720 768 l 262,84,85
 704 768 704 768 704 784 c 262,86,-1
 704 880 l 262,87,88
 704 896 704 896 720 896 c 262,89,-1
 944 896 l 262,90,91
 960 896 960 896 960 880 c 262,54,-1
EndSplineSet
Validated: 1
Layer: 2
Refer: 75 106 N 1 0 0 1 43 0 2
Refer: 74 105 S 1 0 0 1 -302 0 2
Layer: 3
Refer: 75 106 N 1 0 0 1 43 0 2
Refer: 74 105 S 1 0 0 1 -302 0 2
Colour: 6600
EndChar
StartChar: oe
Encoding: 339 339 275
Width: 1024
VWidth: 0
Flags: MW
LayerCount: 5
Back
Fore
SplineSet
960 704 m 258,0,-1
 960 400 l 258,1,2
 960 384 960 384 944 384 c 282,3,-1
 592 384 l 258,4,5
 576 384 576 384 576 368 c 258,6,-1
 576 224 l 258,7,8
 576 192 576 192 608 160 c 256,9,10
 640 128 640 128 672 128 c 258,11,-1
 816 128 l 258,12,13
 832 128 832 128 832 144 c 258,14,-1
 832 176 l 258,15,16
 832 192 832 192 848 192 c 258,17,-1
 944 192 l 258,18,19
 960 192 960 192 960 176 c 258,20,-1
 960 96 l 258,21,22
 960 64 960 64 928 32 c 256,23,24
 896 0 896 0 864 0 c 258,25,-1
 255 0 l 258,26,27
 191 0 191 0 127 64 c 256,28,29
 63 128 63 128 63 192 c 258,30,-1
 63 704 l 258,31,32
 63 768 63 768 127 832 c 256,33,34
 191 896 191 896 255 896 c 258,35,-1
 768 896 l 258,36,37
 832 896 832 896 896 832 c 256,38,39
 960 768 960 768 960 704 c 258,0,-1
832 528 m 258,40,-1
 832 672 l 258,41,42
 832 704 832 704 800 736 c 256,43,44
 768 768 768 768 736 768 c 258,45,-1
 672 768 l 258,46,47
 640 768 640 768 608 736 c 256,48,49
 576 704 576 704 576 672 c 258,50,-1
 576 528 l 258,51,52
 576 512 576 512 592 512 c 258,53,-1
 816 512 l 282,54,55
 832 512 832 512 832 528 c 258,40,-1
191 224 m 258,56,57
 191 192 191 192 223 160 c 256,58,59
 255 128 255 128 287 128 c 258,60,-1
 432 128 l 258,61,62
 448 128 448 128 448 144 c 258,63,-1
 448 752 l 258,64,65
 448 768 448 768 432 768 c 258,66,-1
 287 768 l 258,67,68
 255 768 255 768 223 736 c 256,69,70
 191 704 191 704 191 672 c 258,71,-1
 191 224 l 258,56,57
EndSplineSet
Validated: 1
Layer: 2
Refer: 70 101 S 1 0 0 1 43 0 2
Refer: 80 111 N 1 0 0 1 43 0 2
Layer: 3
Refer: 70 101 S 1 0 0 1 43 0 2
Refer: 80 111 N 1 0 0 1 43 0 2
Colour: 6600
EndChar
StartChar: longs
Encoding: 383 383 316
Width: 1024
VWidth: 0
Flags: MW
LayerCount: 5
Back
Fore
SplineSet
896 1264 m 258,0,-1
 896 1168 l 258,1,2
 896 1152 896 1152 880 1152 c 258,3,-1
 608 1152 l 258,4,5
 576 1152 576 1152 544 1120 c 256,6,7
 512 1088 512 1088 512 1056 c 258,8,-1
 512 16 l 258,9,10
 512 0 512 0 496 0 c 258,11,-1
 400 0 l 258,12,13
 384 0 384 0 384 16 c 258,14,-1
 384 1088 l 258,15,16
 384 1152 384 1152 448 1216 c 256,17,18
 512 1280 512 1280 576 1280 c 258,19,-1
 880 1280 l 258,20,21
 896 1280 896 1280 896 1264 c 258,0,-1
EndSplineSet
Validated: 1
Colour: 6600
EndChar
StartChar: uni018B
Encoding: 395 395 1340
Width: 1024
VWidth: 0
Flags: W
LayerCount: 5
Fore
SplineSet
752 128 m 258,0,-1
 352 128 l 258,1,2
 320 128 320 128 288 160 c 256,3,4
 256 192 256 192 256 224 c 258,5,-1
 256 448 l 258,6,7
 256 512 256 512 320 576 c 256,8,9
 384 640 384 640 448 640 c 258,10,-1
 752 640 l 258,11,12
 768 640 768 640 768 624 c 258,13,-1
 768 144 l 258,14,15
 768 128 768 128 752 128 c 258,0,-1
256 1168 m 258,16,17
 256 1152 256 1152 272 1152 c 258,18,-1
 752 1152 l 258,19,20
 768 1152 768 1152 768 1136 c 258,21,-1
 768 784 l 258,22,23
 768 768 768 768 752 768 c 258,24,-1
 384 768 l 282,25,26
 320 768 320 768 256 704 c 258,27,-1
 192 640 l 258,28,29
 128 576 128 576 128 512 c 258,30,-1
 128 192 l 258,31,32
 128 128 128 128 192 64 c 256,33,34
 256 0 256 0 320 0 c 258,35,-1
 880 0 l 258,36,37
 896 0 896 0 896 16 c 258,38,-1
 896 1264 l 258,39,40
 896 1280 896 1280 880 1280 c 258,41,-1
 272 1280 l 258,42,43
 256 1280 256 1280 256 1264 c 258,44,-1
 256 1168 l 258,16,17
EndSplineSet
Validated: 9
Colour: 6600
EndChar
StartChar: florin
Encoding: 402 402 321
Width: 1024
VWidth: 0
Flags: MW
LayerCount: 5
Back
Fore
SplineSet
448 784 m 262,0,-1
 448 1184 l 262,1,2
 448 1216 448 1216 480 1248 c 260,3,4
 512 1280 512 1280 544 1280 c 262,5,-1
 800 1280 l 262,6,7
 832 1280 832 1280 864 1248 c 260,8,9
 896 1216 896 1216 896 1184 c 262,10,-1
 896 1040 l 262,11,12
 896 1024 896 1024 880 1024 c 262,13,-1
 784 1024 l 286,14,15
 768 1024 768 1024 768 1040 c 262,16,-1
 768 1104 l 262,17,18
 768 1120 768 1120 752 1136 c 260,19,20
 736 1152 736 1152 720 1152 c 262,21,-1
 624 1152 l 262,22,23
 608 1152 608 1152 592 1136 c 260,24,25
 576 1120 576 1120 576 1104 c 262,26,-1
 576 784 l 262,27,28
 576 768 576 768 592 768 c 262,29,-1
 752 768 l 262,30,31
 768 768 768 768 768 752 c 262,32,-1
 768 656 l 262,33,34
 768 640 768 640 752 640 c 262,35,-1
 592 640 l 262,36,37
 576 640 576 640 576 624 c 262,38,-1
 576 -160 l 262,39,40
 576 -192 576 -192 544 -224 c 260,41,42
 512 -256 512 -256 480 -256 c 262,43,-1
 224 -256 l 262,44,45
 192 -256 192 -256 160 -224 c 260,46,47
 128 -192 128 -192 128 -160 c 262,48,-1
 128 -16 l 262,49,50
 128 0 128 0 144 0 c 286,51,-1
 240 0 l 286,52,-1
 256 -16 l 286,53,-1
 256 -80 l 262,54,55
 256 -96 256 -96 272 -112 c 260,56,57
 288 -128 288 -128 304 -128 c 278,58,-1
 400 -128 l 262,59,60
 416 -128 416 -128 432 -112 c 260,61,62
 448 -96 448 -96 448 -80 c 262,63,-1
 448 624 l 262,64,65
 448 640 448 640 432 640 c 262,66,-1
 272 640 l 262,67,68
 256 640 256 640 256 656 c 262,69,-1
 256 752 l 262,70,71
 256 768 256 768 272 768 c 262,72,-1
 432 768 l 262,73,74
 448 768 448 768 448 784 c 262,0,-1
EndSplineSet
Validated: 1
Layer: 2
Refer: 71 102 N 1 0 0 1 0 0 2
Layer: 3
Refer: 71 102 N 1 0 0 1 0 0 2
Colour: 6600
EndChar
StartChar: oi
Encoding: 419 419 830
Width: 1024
VWidth: 0
Flags: MW
LayerCount: 5
Fore
SplineSet
128 224 m 258
 128 192 128 192 160 160 c 256
 192 128 192 128 224 128 c 258
 416 128 l 258
 448 128 448 128 480 160 c 256
 512 192 512 192 512 224 c 258
 512 672 l 258
 512 704 512 704 480 736 c 256
 448 768 448 768 416 768 c 258
 224 768 l 258
 192 768 192 768 160 736 c 256
 128 704 128 704 128 672 c 258
 128 224 l 258
0 192 m 258
 0 704 l 258
 0 768 0 768 64 832 c 256
 128 896 128 896 192 896 c 258
 448 896 l 258
 512 896 512 896 576 832 c 256
 640 768 640 768 640 704 c 258
 640 192 l 258
 640 128 640 128 576 64 c 256
 512 0 512 0 448 0 c 258
 192 0 l 258
 128 0 128 0 64 64 c 256
 0 128 0 128 0 192 c 258
EndSplineSet
Refer: 74 105 N 1 0 0 1 320 0 2
Validated: 1
Layer: 2
Refer: 80 111 N 1 0 0 1 0 0 2
Layer: 3
Refer: 80 111 N 1 0 0 1 0 0 2
Colour: 6600
EndChar
StartChar: uni01A8
Encoding: 424 424 1351
Width: 1024
VWidth: 0
Flags: W
LayerCount: 5
Fore
SplineSet
144 640 m 258,0,1
 128 640 128 640 128 656 c 258,2,-1
 128 704 l 258,3,4
 128 768 128 768 192 832 c 256,5,6
 256 896 256 896 320 896 c 258,7,-1
 704 896 l 258,8,9
 768 896 768 896 832 832 c 256,10,11
 896 768 896 768 896 704 c 258,12,-1
 896 576 l 258,13,14
 896 512 896 512 832 448 c 256,15,16
 768 384 768 384 704 384 c 258,17,-1
 352 384 l 258,18,19
 320 384 320 384 288 352 c 256,20,21
 256 320 256 320 256 288 c 258,22,-1
 256 224 l 258,23,24
 256 192 256 192 288 160 c 256,25,26
 320 128 320 128 352 128 c 258,27,-1
 672 128 l 258,28,29
 704 128 704 128 736 160 c 256,30,31
 768 192 768 192 768 224 c 258,32,-1
 768 240 l 258,33,34
 768 256 768 256 784 256 c 258,35,-1
 880 256 l 258,36,37
 896 256 896 256 896 240 c 258,38,-1
 896 192 l 258,39,40
 896 128 896 128 832 64 c 256,41,42
 768 0 768 0 704 0 c 258,43,-1
 320 0 l 258,44,45
 256 0 256 0 192 64 c 256,46,47
 128 128 128 128 128 192 c 258,48,-1
 128 320 l 258,49,50
 128 384 128 384 192 448 c 256,51,52
 256 512 256 512 320 512 c 258,53,-1
 672 512 l 258,54,55
 704 512 704 512 736 544 c 256,56,57
 768 576 768 576 768 608 c 258,58,-1
 768 672 l 258,59,60
 768 704 768 704 736 736 c 256,61,62
 704 768 704 768 672 768 c 258,63,-1
 352 768 l 258,64,65
 320 768 320 768 288 736 c 256,66,67
 256 704 256 704 256 672 c 258,68,-1
 256 656 l 258,69,70
 256 640 256 640 240 640 c 258,71,-1
 144 640 l 258,0,1
EndSplineSet
Validated: 1
Colour: 6600
EndChar
StartChar: uni01A9
Encoding: 425 425 1375
Width: 1024
VWidth: 0
Flags: W
LayerCount: 5
Fore
SplineSet
704 752 m 258,0,-1
 384 432 l 258,1,2
 368 416 368 416 368 400 c 256,3,4
 368 384 368 384 384 384 c 258,5,-1
 1008 384 l 258,6,7
 1024 384 1024 384 1024 368 c 258,8,-1
 1024 272 l 258,9,10
 1024 256 1024 256 1008 256 c 258,11,-1
 16 256 l 258,12,13
 0 256 0 256 0 272 c 258,14,-1
 0 368 l 258,15,16
 0 384 0 384 16 384 c 258,17,-1
 32 384 l 258,18,19
 144 384 144 384 240 480 c 258,20,-1
 512 752 l 258,21,22
 528 768 528 768 512 784 c 258,23,-1
 240 1056 l 258,24,25
 144 1152 144 1152 32 1152 c 258,26,27
 16 1152 l 258,28,29
 0 1152 0 1152 0 1168 c 258,30,-1
 0 1264 l 258,31,32
 0 1280 0 1280 16 1280 c 258,33,-1
 1008 1280 l 258,34,35
 1024 1280 1024 1280 1024 1264 c 258,36,-1
 1024 1168 l 258,37,38
 1024 1152 1024 1152 1008 1152 c 258,39,-1
 384 1152 l 258,40,41
 368 1152 368 1152 368 1136 c 256,42,43
 368 1120 368 1120 384 1104 c 258,44,-1
 704 784 l 258,45,46
 720 768 720 768 704 752 c 258,0,-1
EndSplineSet
Validated: 1
Colour: 6600
EndChar
StartChar: Ezh
Encoding: 439 439 324
Width: 1024
VWidth: 0
Flags: MW
LayerCount: 5
Back
Fore
SplineSet
144 1280 m 2,0,-1
 880 1280 l 2,1,2
 896 1280 896 1280 896 1264 c 2,3,-1
 896 1200 l 2,4,5
 896 1152 896 1152 848 1104 c 6,6,-1
 560 816 l 2,7,8
 544 800 544 800 544 784 c 128,-1,9
 544 768 544 768 560 768 c 2,10,-1
 704 768 l 2,11,12
 768 768 768 768 832 704 c 128,-1,13
 896 640 896 640 896 576 c 2,14,-1
 896 192 l 2,15,16
 896 128 896 128 832 64 c 128,-1,17
 768 0 768 0 704 0 c 2,18,-1
 320 0 l 2,19,20
 256 0 256 0 192 64 c 128,-1,21
 128 128 128 128 128 192 c 2,22,-1
 128 304 l 2,23,24
 128 320 128 320 144 320 c 2,25,-1
 240 320 l 2,26,27
 256 320 256 320 256 304 c 2,28,-1
 256 224 l 2,29,30
 256 192 256 192 288 160 c 128,-1,31
 320 128 320 128 352 128 c 2,32,-1
 672 128 l 2,33,34
 704 128 704 128 736 160 c 128,-1,35
 768 192 768 192 768 224 c 2,36,-1
 768 544 l 2,37,38
 768 576 768 576 736 608 c 128,-1,39
 704 640 704 640 672 640 c 2,40,-1
 336 640 l 2,41,42
 320 640 320 640 320 656 c 2,43,-1
 320 720 l 2,44,45
 320 768 320 768 368 816 c 2,46,-1
 656 1104 l 2,47,48
 672 1120 672 1120 672 1136 c 128,-1,49
 672 1152 672 1152 656 1152 c 2,50,-1
 144 1152 l 2,51,52
 128 1152 128 1152 128 1168 c 2,53,-1
 128 1264 l 2,54,55
 128 1280 128 1280 144 1280 c 2,0,-1
EndSplineSet
Validated: 1
Colour: 6600
EndChar
StartChar: DZ
Encoding: 497 497 761
Width: 1024
VWidth: 0
Flags: MW
LayerCount: 5
Fore
SplineSet
128 1136 m 258
 128 144 l 258
 128 128 128 128 144 128 c 258
 544 128 l 258
 576 128 576 128 608 160 c 256
 640 192 640 192 640 224 c 258
 640 1056 l 258
 640 1088 640 1088 608 1120 c 256
 576 1152 576 1152 544 1152 c 258
 144 1152 l 258
 128 1152 128 1152 128 1136 c 258
16 1280 m 258
 576 1280 l 258
 640 1280 640 1280 704 1216 c 256
 768 1152 768 1152 768 1088 c 258
 768 192 l 258
 768 128 768 128 704 64 c 256
 640 0 640 0 576 0 c 258
 16 0 l 258
 0 0 0 0 0 16 c 258
 0 1264 l 258
 0 1280 0 1280 16 1280 c 258
EndSplineSet
Refer: 59 90 S 1 0 0 1 90 1 2
Validated: 5
Layer: 2
Refer: 59 90 S 1 0 0 1 128 0 2
Refer: 37 68 N 1 0 0 1 -128 0 2
Layer: 3
Refer: 59 90 S 1 0 0 1 128 0 2
Refer: 37 68 N 1 0 0 1 -128 0 2
Colour: ff0000
EndChar
StartChar: db
Encoding: 568 568 1010
Width: 1024
VWidth: 0
Flags: MW
LayerCount: 5
Fore
SplineSet
432 768 m 262,0,-1
 224 768 l 262,1,2
 192 768 192 768 160 736 c 260,3,4
 128 704 128 704 128 672 c 262,5,-1
 128 224 l 262,6,7
 128 192 128 192 160 160 c 260,8,9
 192 128 192 128 224 128 c 262,10,-1
 432 128 l 262,11,12
 448 128 448 128 448 144 c 262,13,-1
 448 752 l 262,14,15
 448 768 448 768 432 768 c 262,0,-1
560 1280 m 262,16,17
 576 1280 576 1280 576 1265 c 262,18,-1
 576 912 l 262,19,20
 576 896 576 896 592 896 c 262,21,-1
 832 896 l 262,22,23
 896 896 896 896 960 832 c 260,24,25
 1024 768 1024 768 1024 704 c 262,26,-1
 1024 192 l 262,27,28
 1024 128 1024 128 960 64 c 260,29,30
 896 0 896 0 832 0 c 262,31,-1
 192 0 l 262,32,33
 128 0 128 0 64 64 c 260,34,35
 0 128 0 128 0 192 c 262,36,-1
 0 704 l 262,37,38
 0 768 0 768 64 832 c 260,39,40
 128 896 128 896 192 896 c 262,41,-1
 432 896 l 262,42,43
 448 896 448 896 448 912 c 262,44,-1
 448 1264 l 262,45,46
 448 1280 448 1280 464 1280 c 262,47,-1
 560 1280 l 262,16,17
576 144 m 262,48,49
 576 128 576 128 592 128 c 262,50,-1
 800 128 l 262,51,52
 832 128 832 128 864 160 c 260,53,54
 896 192 896 192 896 224 c 262,55,-1
 896 672 l 262,56,57
 896 704 896 704 864 736 c 260,58,59
 832 768 832 768 800 768 c 262,60,-1
 592 768 l 262,61,62
 576 768 576 768 576 752 c 262,63,-1
 576 144 l 262,48,49
EndSplineSet
Layer: 2
Refer: 67 98 S 1 0 0 1 640 0 2
Refer: 69 100 N 1 0 0 1 -128 0 2
Layer: 3
Refer: 67 98 S 1 0 0 1 640 0 2
Refer: 69 100 N 1 0 0 1 -128 0 2
Colour: 6600
EndChar
StartChar: circumflex
Encoding: 710 710 334
Width: 1024
VWidth: 0
Flags: MW
LayerCount: 5
Back
Fore
Validated: 1
Layer: 2
SplineSet
434 1543 m 2,0,1
 448 1557 448 1557 462 1557 c 2,2,-1
 476 1557 l 2,3,4
 490 1557 490 1557 505 1543 c 2,5,-1
 668 1380 l 2,6,7
 682 1366 682 1366 668 1365 c 2,8,-1
 612 1365 l 2,9,10
 598 1365 598 1365 583 1380 c 2,11,-1
 505 1458 l 2,12,13
 491 1472 491 1472 476 1472 c 2,14,-1
 462 1472 l 2,15,16
 448 1472 448 1472 434 1458 c 2,17,-1
 356 1380 l 2,18,19
 342 1366 342 1366 327 1365 c 2,20,-1
 270 1365 l 2,21,22
 256 1365 256 1365 270 1380 c 2,23,-1
 434 1543 l 2,0,1
EndSplineSet
Layer: 3
SplineSet
434 1543 m 2,0,1
 448 1557 448 1557 462 1557 c 2,2,-1
 476 1557 l 2,3,4
 490 1557 490 1557 505 1543 c 2,5,-1
 668 1380 l 2,6,7
 682 1366 682 1366 668 1365 c 2,8,-1
 612 1365 l 2,9,10
 598 1365 598 1365 583 1380 c 2,11,-1
 505 1458 l 2,12,13
 491 1472 491 1472 476 1472 c 2,14,-1
 462 1472 l 2,15,16
 448 1472 448 1472 434 1458 c 2,17,-1
 356 1380 l 2,18,19
 342 1366 342 1366 327 1365 c 2,20,-1
 270 1365 l 2,21,22
 256 1365 256 1365 270 1380 c 2,23,-1
 434 1543 l 2,0,1
EndSplineSet
Colour: ff6600
EndChar
StartChar: plusmod
Encoding: 726 726 953
Width: 1024
VWidth: 0
Flags: MW
LayerCount: 5
Fore
SplineSet
464 832 m 258,0,-1
 560 832 l 258,1,2
 576 832 576 832 576 816 c 258,3,-1
 576 720 l 258,4,5
 576 704 576 704 592 704 c 258,6,-1
 688 704 l 258,7,8
 704 704 704 704 704 688 c 258,9,-1
 704 592 l 258,10,11
 704 576 704 576 688 576 c 258,12,-1
 592 576 l 258,13,14
 576 576 576 576 576 560 c 258,15,-1
 576 464 l 258,16,17
 576 448 576 448 560 448 c 258,18,-1
 464 448 l 258,19,20
 448 448 448 448 448 464 c 258,21,-1
 448 560 l 258,22,23
 448 576 448 576 432 576 c 258,24,-1
 336 576 l 258,25,26
 320 576 320 576 320 592 c 258,27,-1
 320 688 l 258,28,29
 320 704 320 704 336 704 c 258,30,-1
 432 704 l 258,31,32
 448 704 448 704 448 720 c 258,33,-1
 448 816 l 258,34,35
 448 832 448 832 464 832 c 258,0,-1
EndSplineSet
Validated: 1
Layer: 2
Refer: 12 43 N 1 0 0 1 0 0 2
Layer: 3
Refer: 12 43 N 1 0 0 1 0 0 2
Colour: ff6600
EndChar
StartChar: minusmod
Encoding: 727 727 954
Width: 1024
VWidth: 0
Flags: MW
LayerCount: 5
Fore
SplineSet
320 592 m 262,0,-1
 320 688 l 262,1,2
 320 704 320 704 336 704 c 262,3,-1
 688 704 l 258,4,5
 704 704 704 704 704 688 c 258,6,-1
 704 592 l 258,7,8
 704 576 704 576 688 576 c 258,9,-1
 336 576 l 262,10,11
 320 576 320 576 320 592 c 262,0,-1
EndSplineSet
Validated: 1
Layer: 2
Refer: 14 45 N 1 0 0 1 0 0 2
Layer: 3
Refer: 14 45 N 1 0 0 1 0 0 2
Colour: ff6600
EndChar
StartChar: ogonek
Encoding: 731 731 338
Width: 1024
VWidth: 0
Flags: MW
LayerCount: 5
Back
Fore
SplineSet
896 -16 m 262,0,-1
 896 -48 l 262,1,2
 896 -64 896 -64 880 -64 c 262,3,-1
 800 -64 l 262,4,5
 768 -64 768 -64 736 -96 c 260,6,7
 704 -128 704 -128 704 -160 c 262,8,-1
 704 -176 l 262,9,10
 704 -192 704 -192 720 -192 c 262,11,-1
 880 -192 l 262,12,13
 896 -192 896 -192 896 -208 c 262,14,-1
 896 -304 l 262,15,16
 896 -320 896 -320 880 -320 c 262,17,-1
 672 -320 l 262,18,19
 640 -320 640 -320 608 -288 c 260,20,21
 576 -256 576 -256 576 -224 c 262,22,-1
 576 -96 l 262,23,24
 576 -64 576 -64 608 -32 c 260,25,26
 640 0 640 0 672 0 c 262,27,-1
 880 0 l 262,28,29
 896 0 896 0 896 -16 c 262,0,-1
EndSplineSet
Validated: 1
Colour: ff6600
EndChar
StartChar: circumflexcomb
Encoding: 770 770 1031
Width: 1024
VWidth: 0
Flags: MW
LayerCount: 5
Fore
SplineSet
480 1584 m 6,0,1
 496 1600 496 1600 512 1600 c 132,-1,2
 528 1600 528 1600 544 1584 c 2,3,-1
 752 1376 l 18,4,5
 768 1360 768 1360 752 1360 c 10,6,-1
 640 1360 l 2,7,8
 624 1360 624 1360 608 1376 c 2,9,-1
 592 1392 l 2,10,11
 576 1408 576 1408 560 1408 c 2,12,-1
 464 1408 l 2,13,14
 448 1408 448 1408 432 1392 c 26,15,-1
 416 1376 l 2,16,17
 400 1360 400 1360 384 1360 c 2,18,-1
 272 1360 l 6,19,20
 256 1360 256 1360 272 1376 c 6,21,-1
 480 1584 l 6,0,1
EndSplineSet
Validated: 3073
Colour: 6666
EndChar
StartChar: vrachycomb
Encoding: 774 774 1035
Width: 1024
VWidth: 0
Flags: MW
LayerCount: 5
Fore
SplineSet
272 1600 m 2,0,-1
 368 1600 l 2,1,2
 384 1600 384 1600 384 1584 c 2,3,-1
 384 1488 l 2,4,5
 384 1472 384 1472 400 1472 c 2,6,7
 624 1472 l 2,8,9
 640 1472 640 1472 640 1488 c 2,10,-1
 640 1584 l 2,11,12
 640 1600 640 1600 656 1600 c 2,13,-1
 752 1600 l 2,14,15
 768 1600 768 1600 768 1584 c 2,16,-1
 768 1536 l 2,17,18
 768 1472 768 1472 704 1408 c 128,-1,19
 640 1344 640 1344 576 1344 c 2,20,-1
 448 1344 l 2,21,22
 384 1344 384 1344 320 1408 c 128,-1,23
 256 1472 256 1472 256 1536 c 2,24,-1
 256 1584 l 2,25,26
 256 1600 256 1600 272 1600 c 2,0,-1
EndSplineSet
Validated: 1
Colour: 6666
EndChar
StartChar: uni030C
Encoding: 780 780 1045
Width: 1024
VWidth: 0
Flags: MW
LayerCount: 5
Fore
SplineSet
544 1376 m 2,0,1
 528 1360 528 1360 512 1360 c 128,-1,2
 496 1360 496 1360 480 1376 c 6,3,-1
 272 1584 l 18,4,5
 256 1600 256 1600 272 1600 c 10,6,-1
 384 1600 l 2,7,8
 400 1600 400 1600 416 1584 c 2,9,-1
 432 1568 l 2,10,11
 448 1552 448 1552 464 1552 c 2,12,-1
 560 1552 l 2,13,14
 576 1552 576 1552 592 1568 c 26,15,-1
 608 1584 l 2,16,17
 624 1600 624 1600 640 1600 c 2,18,-1
 752 1600 l 2,19,20
 768 1600 768 1600 752 1584 c 2,21,-1
 544 1376 l 2,0,1
EndSplineSet
Validated: 3073
Colour: 6666
EndChar
StartChar: uni030D
Encoding: 781 781 1046
Width: 1024
VWidth: 0
Flags: MW
LayerCount: 5
Fore
SplineSet
448 1328 m 262,0,-1
 448 1648 l 258,1,2
 448 1664 448 1664 464 1664 c 258,3,-1
 560 1664 l 258,4,5
 576 1664 576 1664 576 1648 c 258,6,-1
 576 1328 l 262,7,8
 576 1312 576 1312 560 1312 c 262,9,-1
 464 1312 l 262,10,11
 448 1312 448 1312 448 1328 c 262,0,-1
EndSplineSet
Validated: 1
Colour: 6666
EndChar
StartChar: uni0310
Encoding: 784 784 1334
Width: 1024
VWidth: 0
Flags: W
LayerCount: 5
Fore
SplineSet
464 1648 m 258
 560 1648 l 258
 576 1648 576 1648 576 1632 c 258
 576 1536 l 258
 576 1520 576 1520 560 1520 c 258
 464 1520 l 258
 448 1520 448 1520 448 1536 c 258
 448 1632 l 258
 448 1648 448 1648 464 1648 c 258
EndSplineSet
Refer: 1035 774 N 1 0 0 1 0 0 2
Validated: 1
Colour: 6666
EndChar
StartChar: uni031B
Encoding: 795 795 1343
Width: 1024
VWidth: 0
Flags: W
LayerCount: 5
Fore
SplineSet
880 1536 m 258,0,-1
 976 1536 l 258,1,2
 992 1536 992 1536 992 1520 c 258,3,-1
 992 1392 l 258,4,5
 992 1280 992 1280 880 1168 c 258,6,7
 864 1152 l 258,8,9
 848 1136 848 1136 832 1152 c 258,10,-1
 768 1216 l 258,11,12
 752 1232 752 1232 768 1248 c 258,13,14
 784 1264 l 258,15,16
 864 1344 864 1344 864 1424 c 258,17,-1
 864 1520 l 258,18,19
 864 1536 864 1536 880 1536 c 258,0,-1
EndSplineSet
Validated: 1
Colour: 6666
EndChar
StartChar: uni031C
Encoding: 796 796 1344
Width: 1024
VWidth: 0
Flags: W
LayerCount: 5
Fore
SplineSet
512 -64 m 265,0,-1
 512 -128 l 273,1,-1
 496 -128 l 258,2,3
 480 -128 480 -128 464 -144 c 256,4,5
 448 -160 448 -160 448 -176 c 258,6,-1
 448 -272 l 258,7,8
 448 -288 448 -288 464 -304 c 256,9,10
 480 -320 480 -320 496 -320 c 258,11,-1
 512 -320 l 265,12,-1
 512 -384 l 273,13,-1
 416 -384 l 258,14,15
 384 -384 384 -384 352 -352 c 256,16,17
 320 -320 320 -320 320 -288 c 258,18,-1
 320 -160 l 258,19,20
 320 -128 320 -128 352 -96 c 256,21,22
 384 -64 384 -64 416 -64 c 258,23,-1
 512 -64 l 265,0,-1
EndSplineSet
Validated: 1
Colour: 6666
EndChar
StartChar: uni031D
Encoding: 797 797 1345
Width: 1024
VWidth: 0
Flags: W
LayerCount: 5
Fore
SplineSet
696 -272 m 258,0,-1
 696 -368 l 258,1,2
 696 -384 696 -384 680 -384 c 258,3,-1
 344 -384 l 258,4,5
 328 -384 328 -384 328 -368 c 258,6,-1
 328 -272 l 258,7,8
 328 -256 328 -256 344 -256 c 258,9,-1
 432 -256 l 258,10,11
 448 -256 448 -256 448 -240 c 258,12,-1
 448 -32 l 258,13,14
 448 -16 448 -16 464 -16 c 258,15,-1
 560 -16 l 258,16,17
 576 -16 576 -16 576 -32 c 258,18,-1
 576 -240 l 258,19,20
 576 -256 576 -256 592 -256 c 258,21,-1
 680 -256 l 258,22,23
 696 -256 696 -256 696 -272 c 258,0,-1
EndSplineSet
Validated: 1
Colour: 6666
EndChar
StartChar: uni0321
Encoding: 801 801 1347
Width: 1024
VWidth: 0
Flags: W
LayerCount: 5
Fore
SplineSet
464 32 m 262,0,-1
 560 32 l 262,1,2
 576 32 576 32 576 16 c 262,3,-1
 576 -224 l 262,4,5
 576 -256 576 -256 544 -288 c 260,6,7
 512 -320 512 -320 480 -320 c 262,8,-1
 336 -320 l 262,9,10
 320 -320 320 -320 320 -304 c 262,11,-1
 320 -272 l 262,12,13
 320 -256 320 -256 336 -256 c 262,14,-1
 400 -256 l 262,15,16
 416 -256 416 -256 432 -240 c 260,17,18
 448 -224 448 -224 448 -208 c 262,19,-1
 448 16 l 262,20,21
 448 32 448 32 464 32 c 262,0,-1
EndSplineSet
Validated: 1
Colour: 6666
EndChar
StartChar: uni0322
Encoding: 802 802 1352
Width: 1024
VWidth: 0
Flags: W
LayerCount: 5
Fore
SplineSet
464 -320 m 258,0,1
 448 -320 448 -320 448 -304 c 258,2,-1
 448 -80 l 258,3,4
 448 -64 448 -64 432 -48 c 256,5,6
 416 -32 416 -32 400 -32 c 258,7,-1
 336 -32 l 258,8,9
 320 -32 320 -32 320 -16 c 258,10,-1
 320 16 l 258,11,12
 320 32 320 32 336 32 c 258,13,-1
 480 32 l 258,14,15
 512 32 512 32 544 0 c 256,16,17
 576 -32 576 -32 576 -64 c 258,18,-1
 576 -304 l 258,19,20
 576 -320 576 -320 560 -320 c 258,21,-1
 464 -320 l 258,0,1
EndSplineSet
Validated: 1
Colour: 6666
EndChar
StartChar: uni0326
Encoding: 806 806 1061
Width: 1024
VWidth: 0
Flags: MW
LayerCount: 5
Fore
SplineSet
464 -64 m 262,0,1
 560 -64 l 262,2,3
 576 -64 576 -64 576 -80 c 262,4,-1
 576 -128 l 262,5,6
 576 -240 576 -240 464 -352 c 262,7,8
 448 -368 l 262,9,10
 432 -384 432 -384 416 -368 c 262,11,-1
 352 -304 l 262,12,13
 336 -288 336 -288 352 -272 c 262,14,-1
 368 -256 l 262,15,16
 448 -176 448 -176 448 -96 c 262,17,-1
 448 -80 l 262,18,19
 448 -64 448 -64 464 -64 c 262,0,1
EndSplineSet
Validated: 1
Colour: 6666
EndChar
StartChar: ogonekcmb
Encoding: 808 808 1337
Width: 1024
VWidth: 0
Flags: W
LayerCount: 5
Fore
SplineSet
704 -16 m 262,0,-1
 704 -48 l 262,1,2
 704 -64 704 -64 688 -64 c 262,3,-1
 608 -64 l 262,4,5
 576 -64 576 -64 544 -96 c 260,6,7
 512 -128 512 -128 512 -160 c 262,8,-1
 512 -176 l 262,9,10
 512 -192 512 -192 528 -192 c 262,11,-1
 688 -192 l 262,12,13
 704 -192 704 -192 704 -208 c 262,14,-1
 704 -304 l 262,15,16
 704 -320 704 -320 688 -320 c 262,17,-1
 480 -320 l 262,18,19
 448 -320 448 -320 416 -288 c 260,20,21
 384 -256 384 -256 384 -224 c 262,22,-1
 384 -96 l 262,23,24
 384 -64 384 -64 416 -32 c 260,25,26
 448 0 448 0 480 0 c 262,27,-1
 688 0 l 262,28,29
 704 0 704 0 704 -16 c 262,0,-1
EndSplineSet
Validated: 1
Colour: 6666
EndChar
StartChar: verticallinebelowcmb
Encoding: 809 809 1063
Width: 1024
VWidth: 0
Flags: MW
LayerCount: 5
Fore
SplineSet
448 -304 m 262,0,-1
 448 16 l 258,1,2
 448 32 448 32 464 32 c 258,3,-1
 560 32 l 258,4,5
 576 32 576 32 576 16 c 258,6,-1
 576 -304 l 262,7,8
 576 -320 576 -320 560 -320 c 262,9,-1
 464 -320 l 262,10,11
 448 -320 448 -320 448 -304 c 262,0,-1
EndSplineSet
Validated: 1
Colour: 6666
EndChar
StartChar: caronbelowcmb
Encoding: 812 812 1064
Width: 1024
VWidth: 0
Flags: MW
LayerCount: 5
Fore
SplineSet
544 -304 m 2,0,1
 528 -320 528 -320 512 -320 c 128,-1,2
 496 -320 496 -320 480 -304 c 6,3,-1
 272 -96 l 18,4,5
 256 -80 256 -80 272 -80 c 10,6,-1
 384 -80 l 2,7,8
 400 -80 400 -80 416 -96 c 2,9,-1
 432 -112 l 2,10,11
 448 -128 448 -128 464 -128 c 2,12,-1
 560 -128 l 2,13,14
 576 -128 576 -128 592 -112 c 26,15,-1
 608 -96 l 2,16,17
 624 -80 624 -80 640 -80 c 2,18,-1
 752 -80 l 2,19,20
 768 -80 768 -80 752 -96 c 2,21,-1
 544 -304 l 2,0,1
EndSplineSet
Validated: 1
Colour: 6666
EndChar
StartChar: brevebelowcmb
Encoding: 814 814 1066
Width: 1024
VWidth: 0
Flags: MW
LayerCount: 5
Fore
SplineSet
272 0 m 2,0,-1
 368 0 l 2,1,2
 384 0 384 0 384 -16 c 2,3,-1
 384 -112 l 2,4,5
 384 -128 384 -128 400 -128 c 2,6,7
 624 -128 l 2,8,9
 640 -128 640 -128 640 -112 c 2,10,-1
 640 -16 l 2,11,12
 640 0 640 0 656 0 c 2,13,-1
 752 0 l 2,14,15
 768 0 768 0 768 -16 c 2,16,-1
 768 -64 l 2,17,18
 768 -128 768 -128 704 -192 c 128,-1,19
 640 -256 640 -256 576 -256 c 2,20,-1
 448 -256 l 2,21,22
 384 -256 384 -256 320 -192 c 128,-1,23
 256 -128 256 -128 256 -64 c 2,24,-1
 256 -16 l 2,25,26
 256 0 256 0 272 0 c 2,0,-1
EndSplineSet
Validated: 1
Colour: 6666
EndChar
StartChar: tildebelowcmb
Encoding: 816 816 1068
Width: 1024
VWidth: 0
Flags: MW
LayerCount: 5
Fore
SplineSet
304 -256 m 258,0,-1
 208 -256 l 258,1,2
 192 -256 192 -256 192 -240 c 258,3,-1
 192 -96 l 258,4,5
 192 -64 192 -64 224 -32 c 256,6,7
 256 0 256 0 288 0 c 258,8,-1
 480 0 l 258,9,10
 512 0 512 0 544 -32 c 257,11,12
 576 -64 576 -64 576 -96 c 256,13,14
 576 -128 576 -128 608 -160 c 256,15,16
 642 -192 642 -192 672 -192 c 258,17,-1
 688 -192 l 258,18,19
 704 -192 704 -192 704 -176 c 258,20,-1
 704 -16 l 258,21,22
 704 0 704 0 720 0 c 258,23,-1
 816 0 l 258,24,25
 832 0 832 0 832 -16 c 258,26,-1
 832 -160 l 258,27,28
 832 -192 832 -192 800 -224 c 256,29,30
 768 -256 768 -256 736 -256 c 258,31,-1
 544 -256 l 258,32,33
 512 -256 512 -256 480 -224 c 256,34,35
 448 -192 448 -192 448 -160 c 256,36,37
 448 -128 448 -128 416 -96 c 256,38,39
 384 -64 384 -64 352 -64 c 258,40,-1
 336 -64 l 258,41,42
 320 -64 320 -64 320 -80 c 258,43,-1
 320 -240 l 258,44,45
 320 -256 320 -256 304 -256 c 258,0,-1
EndSplineSet
Validated: 1
Colour: 6666
EndChar
StartChar: macronbelowcmb
Encoding: 817 817 1069
Width: 1024
VWidth: 0
Flags: MW
LayerCount: 5
Fore
SplineSet
272 -128 m 262,0,-1
 752 -128 l 262,1,2
 768 -128 768 -128 768 -144 c 262,3,-1
 768 -240 l 262,4,5
 768 -256 768 -256 752 -256 c 262,6,-1
 272 -256 l 262,7,8
 256 -256 256 -256 256 -240 c 262,9,-1
 256 -144 l 262,10,11
 256 -128 256 -128 272 -128 c 262,0,-1
EndSplineSet
Validated: 1
Colour: 6666
EndChar
StartChar: strokeshortoverlaycmb
Encoding: 821 821 1330
Width: 1024
VWidth: 0
Flags: W
LayerCount: 5
Fore
SplineSet
240 1152 m 258,0,-1
 784 1152 l 258,1,2
 800 1152 800 1152 800 1136 c 258,3,-1
 800 1040 l 258,4,5
 800 1024 800 1024 784 1024 c 258,6,-1
 240 1024 l 258,7,8
 224 1024 224 1024 224 1040 c 258,9,-1
 224 1136 l 258,10,11
 224 1152 224 1152 240 1152 c 258,0,-1
EndSplineSet
Validated: 1
Colour: 6666
EndChar
StartChar: strokelongoverlaycmb
Encoding: 822 822 1331
Width: 1024
VWidth: 0
Flags: W
LayerCount: 5
Fore
SplineSet
80 1088 m 258,0,-1
 944 1088 l 258,1,2
 960 1088 960 1088 960 1072 c 258,3,-1
 960 976 l 258,4,5
 960 960 960 960 944 960 c 258,6,-1
 80 960 l 258,7,8
 64 960 64 960 64 976 c 258,9,-1
 64 1072 l 258,10,11
 64 1088 64 1088 80 1088 c 258,0,-1
EndSplineSet
Validated: 1
Colour: 6666
EndChar
StartChar: solidusshortoverlaycmb
Encoding: 823 823 1332
Width: 1024
VWidth: 0
Flags: W
LayerCount: 5
Fore
SplineSet
272 496 m 258,0,-1
 656 880 l 258,1,2
 672 896 672 896 688 880 c 258,3,-1
 752 816 l 258,4,5
 768 800 768 800 752 784 c 258,6,-1
 368 400 l 258,7,8
 352 384 352 384 336 400 c 258,9,-1
 272 464 l 258,10,11
 256 480 256 480 272 496 c 258,0,-1
EndSplineSet
Validated: 1
Colour: 6666
EndChar
StartChar: Sacutedotaccent
Encoding: 7780 7780 1187
Width: 1024
VWidth: 0
Flags: MW
LayerCount: 5
Fore
SplineSet
464 1600 m 262
 560 1600 l 262
 576 1600 576 1600 576 1584 c 262
 576 1488 l 262
 576 1472 576 1472 560 1472 c 262
 464 1472 l 262
 448 1472 448 1472 448 1488 c 262
 448 1584 l 262
 448 1600 448 1600 464 1600 c 262
EndSplineSet
Refer: 1030 769 N 1 0 0 1 0 -128 2
Refer: 52 83 N 1 0 0 1 0 0 2
Validated: 5
Colour: 6600
EndChar
StartChar: Scarondotaccent
Encoding: 7782 7782 1189
Width: 1024
VWidth: 0
Flags: MW
LayerCount: 5
Fore
SplineSet
464 1648 m 258
 560 1648 l 258
 576 1648 576 1648 576 1632 c 258
 576 1536 l 258
 576 1520 576 1520 560 1520 c 258
 464 1520 l 258
 448 1520 448 1520 448 1536 c 258
 448 1632 l 258
 448 1648 448 1648 464 1648 c 258
EndSplineSet
Refer: 1045 780 N 1 0 0 1 0 -64 2
Refer: 52 83 N 1 0 0 1 0 0 2
Validated: 35841
Colour: 6600
EndChar
StartChar: scarondotaccent
Encoding: 7783 7783 1190
Width: 1024
VWidth: 0
Flags: MW
LayerCount: 5
Fore
SplineSet
464 1264 m 262
 560 1264 l 262
 576 1264 576 1264 576 1248 c 262
 576 1152 l 262
 576 1136 576 1136 560 1136 c 262
 464 1136 l 262
 448 1136 448 1136 448 1152 c 262
 448 1248 l 262
 448 1264 448 1264 464 1264 c 262
EndSplineSet
Refer: 1045 780 N 1 0 0 1 0 -448 2
Refer: 84 115 N 1 0 0 1 0 0 2
Validated: 35841
Colour: 6600
EndChar
StartChar: ydotbelow
Encoding: 7925 7925 1320
Width: 1024
VWidth: 0
Flags: MW
LayerCount: 5
Fore
SplineSet
912 -256 m 262
 1008 -256 l 262
 1024 -256 1024 -256 1024 -272 c 262
 1024 -368 l 258
 1024 -384 1024 -384 1008 -384 c 258
 912 -384 l 258
 896 -384 896 -384 896 -368 c 258
 896 -272 l 262
 896 -256 896 -256 912 -256 c 262
EndSplineSet
Refer: 90 121 N 1 0 0 1 0 0 2
Validated: 35841
Colour: 6600
EndChar
StartChar: dagger
Encoding: 8224 8224 403
Width: 1024
VWidth: 0
Flags: MW
LayerCount: 5
Back
Fore
SplineSet
448 16 m 2,0,-1
 448 880 l 258,1,2
 448 896 448 896 432 896 c 258,3,-1
 208 896 l 258,4,5
 192 896 192 896 192 912 c 258,6,-1
 192 1008 l 258,7,8
 192 1024 192 1024 208 1024 c 258,9,-1
 432 1024 l 258,10,11
 448 1024 448 1024 448 1040 c 258,12,-1
 448 1264 l 258,13,14
 448 1280 448 1280 464 1280 c 258,15,-1
 560 1280 l 258,16,17
 576 1280 576 1280 576 1264 c 258,18,-1
 576 1040 l 258,19,20
 576 1024 576 1024 592 1024 c 258,21,-1
 816 1024 l 258,22,23
 832 1024 832 1024 832 1008 c 258,24,-1
 832 912 l 258,25,26
 832 896 832 896 816 896 c 258,27,-1
 592 896 l 258,28,29
 576 896 576 896 576 880 c 258,30,-1
 576 16 l 2,31,32
 576 0 576 0 560 0 c 2,33,-1
 464 0 l 2,34,35
 448 0 448 0 448 16 c 2,0,-1
EndSplineSet
Validated: 3073
Colour: 808000
EndChar
StartChar: fivesuperior
Encoding: 8309 8309 417
Width: 1024
VWidth: 0
Flags: MW
LayerCount: 5
Back
Fore
SplineSet
704 1488 m 262,0,-1
 704 1392 l 262,1,2
 704 1376 704 1376 688 1376 c 262,3,-1
 400 1376 l 262,4,5
 384 1376 384 1376 384 1360 c 286,6,-1
 384 1232 l 262,7,8
 384 1216 384 1216 400 1216 c 262,9,-1
 672 1216 l 262,10,11
 704 1216 704 1216 736 1184 c 260,12,13
 768 1152 768 1152 768 1120 c 262,14,-1
 768 832 l 258,15,16
 768 800 768 800 736 768 c 256,17,18
 704 736 704 736 672 736 c 258,19,-1
 352 736 l 258,20,21
 320 736 320 736 288 768 c 256,22,23
 256 800 256 800 256 832 c 258,24,-1
 256 912 l 258,25,26
 256 928 256 928 272 928 c 258,27,-1
 368 928 l 258,28,29
 384 928 384 928 384 912 c 256,30,31
 384 896 384 896 400 880 c 256,32,33
 416 864 416 864 432 864 c 258,34,-1
 592 864 l 258,35,36
 608 864 608 864 624 880 c 256,37,38
 640 896 640 896 640 912 c 258,39,-1
 640 1040 l 262,40,41
 640 1056 640 1056 624 1072 c 260,42,43
 608 1088 608 1088 592 1088 c 286,44,-1
 272 1088 l 262,45,46
 256 1088 256 1088 256 1104 c 262,47,-1
 256 1488 l 262,48,49
 256 1504 256 1504 272 1504 c 262,50,-1
 688 1504 l 262,51,52
 704 1504 704 1504 704 1488 c 262,0,-1
EndSplineSet
Validated: 3073
Layer: 2
SplineSet
683 1451 m 29,0,-1
 683 1365 l 25,1,-1
 341 1365 l 25,2,-1
 341 1109 l 25,3,-1
 683 1109 l 25,4,-1
 768 1024 l 25,5,-1
 768 768 l 25,6,-1
 683 683 l 25,7,-1
 256 683 l 25,8,-1
 256 768 l 25,9,-1
 654 768 l 25,10,-1
 683 796 l 25,11,-1
 683 996 l 25,12,-1
 654 1024 l 25,13,-1
 256 1024 l 25,14,-1
 256 1451 l 25,15,-1
 683 1451 l 29,0,-1
EndSplineSet
Layer: 3
SplineSet
683 1451 m 29,0,-1
 683 1365 l 25,1,-1
 341 1365 l 25,2,-1
 341 1109 l 25,3,-1
 683 1109 l 25,4,-1
 768 1024 l 25,5,-1
 768 768 l 25,6,-1
 683 683 l 25,7,-1
 256 683 l 25,8,-1
 256 768 l 25,9,-1
 654 768 l 25,10,-1
 683 796 l 25,11,-1
 683 996 l 25,12,-1
 654 1024 l 25,13,-1
 256 1024 l 25,14,-1
 256 1451 l 25,15,-1
 683 1451 l 29,0,-1
EndSplineSet
Colour: 800080
EndChar
StartChar: uni2093
Encoding: 8339 8339 446
Width: 1024
VWidth: 0
Flags: MW
LayerCount: 5
Back
Fore
SplineSet
256 512 m 25,0,-1
 341 512 l 25,1,-1
 341 398 l 25,2,-1
 484 256 l 25,3,-1
 540 256 l 25,4,-1
 683 398 l 25,5,-1
 683 512 l 25,6,-1
 768 512 l 25,7,-1
 768 370 l 25,8,-1
 597 199 l 25,9,-1
 597 142 l 25,10,-1
 768 -28 l 25,11,-1
 768 -171 l 25,12,-1
 683 -171 l 25,13,-1
 683 -57 l 25,14,-1
 540 85 l 25,15,-1
 484 85 l 25,16,-1
 341 -57 l 25,17,-1
 341 -171 l 25,18,-1
 256 -171 l 25,19,-1
 256 -28 l 25,20,-1
 427 142 l 29,21,-1
 427 199 l 25,22,-1
 256 370 l 25,23,-1
 256 512 l 25,0,-1
EndSplineSet
Validated: 3073
Layer: 2
SplineSet
256 512 m 25,0,-1
 341 512 l 25,1,-1
 341 398 l 25,2,-1
 484 256 l 25,3,-1
 540 256 l 25,4,-1
 683 398 l 25,5,-1
 683 512 l 25,6,-1
 768 512 l 25,7,-1
 768 370 l 25,8,-1
 597 199 l 25,9,-1
 597 142 l 25,10,-1
 768 -28 l 25,11,-1
 768 -171 l 25,12,-1
 683 -171 l 25,13,-1
 683 -57 l 25,14,-1
 540 85 l 25,15,-1
 484 85 l 25,16,-1
 341 -57 l 25,17,-1
 341 -171 l 25,18,-1
 256 -171 l 25,19,-1
 256 -28 l 25,20,-1
 427 142 l 29,21,-1
 427 199 l 25,22,-1
 256 370 l 25,23,-1
 256 512 l 25,0,-1
EndSplineSet
Layer: 3
SplineSet
256 512 m 25,0,-1
 341 512 l 25,1,-1
 341 398 l 25,2,-1
 484 256 l 25,3,-1
 540 256 l 25,4,-1
 683 398 l 25,5,-1
 683 512 l 25,6,-1
 768 512 l 25,7,-1
 768 370 l 25,8,-1
 597 199 l 25,9,-1
 597 142 l 25,10,-1
 768 -28 l 25,11,-1
 768 -171 l 25,12,-1
 683 -171 l 25,13,-1
 683 -57 l 25,14,-1
 540 85 l 25,15,-1
 484 85 l 25,16,-1
 341 -57 l 25,17,-1
 341 -171 l 25,18,-1
 256 -171 l 25,19,-1
 256 -28 l 25,20,-1
 427 142 l 29,21,-1
 427 199 l 25,22,-1
 256 370 l 25,23,-1
 256 512 l 25,0,-1
EndSplineSet
Colour: 800080
EndChar
StartChar: uni21C6
Encoding: 8646 8646 821
Width: 1024
VWidth: 0
Flags: MW
LayerCount: 5
Fore
SplineSet
1024 452 m 25,0,-1
 697 124 l 25,1,-1
 697 252 l 25,2,-1
 853 409 l 25,3,-1
 0 409 l 25,4,-1
 0 494 l 25,5,-1
 853 494 l 25,6,-1
 697 651 l 25,7,-1
 697 779 l 25,8,-1
 1024 452 l 25,0,-1
0 828 m 25,9,-1
 327 1156 l 25,10,-1
 327 1028 l 25,11,-1
 171 871 l 25,12,-1
 1024 871 l 25,13,-1
 1024 786 l 25,14,-1
 171 786 l 25,15,-1
 327 629 l 25,16,-1
 327 501 l 25,17,-1
 0 828 l 25,9,-1
EndSplineSet
Validated: 3073
Layer: 2
SplineSet
1024 452 m 25,0,-1
 697 124 l 25,1,-1
 697 252 l 25,2,-1
 853 409 l 25,3,-1
 0 409 l 25,4,-1
 0 494 l 25,5,-1
 853 494 l 25,6,-1
 697 651 l 25,7,-1
 697 779 l 25,8,-1
 1024 452 l 25,0,-1
0 828 m 25,9,-1
 327 1156 l 25,10,-1
 327 1028 l 25,11,-1
 171 871 l 25,12,-1
 1024 871 l 25,13,-1
 1024 786 l 25,14,-1
 171 786 l 25,15,-1
 327 629 l 25,16,-1
 327 501 l 25,17,-1
 0 828 l 25,9,-1
EndSplineSet
Layer: 3
SplineSet
1024 452 m 25,0,-1
 697 124 l 25,1,-1
 697 252 l 25,2,-1
 853 409 l 25,3,-1
 0 409 l 25,4,-1
 0 494 l 25,5,-1
 853 494 l 25,6,-1
 697 651 l 25,7,-1
 697 779 l 25,8,-1
 1024 452 l 25,0,-1
0 828 m 25,9,-1
 327 1156 l 25,10,-1
 327 1028 l 25,11,-1
 171 871 l 25,12,-1
 1024 871 l 25,13,-1
 1024 786 l 25,14,-1
 171 786 l 25,15,-1
 327 629 l 25,16,-1
 327 501 l 25,17,-1
 0 828 l 25,9,-1
EndSplineSet
EndChar
StartChar: bulletoperator
Encoding: 8729 8729 501
Width: 1024
VWidth: 0
Flags: MW
LayerCount: 5
Back
Fore
SplineSet
608 800 m 256,0,1
 640 768 640 768 640 736 c 258,2,-1
 640 608 l 258,3,4
 640 576 640 576 608 544 c 256,5,6
 576 512 576 512 544 512 c 258,7,-1
 416 512 l 258,8,9
 384 512 384 512 352 544 c 256,10,11
 320 576 320 576 320 608 c 258,12,-1
 320 736 l 258,13,14
 320 768 320 768 352 800 c 256,15,16
 384 832 384 832 416 832 c 258,17,-1
 544 832 l 258,18,19
 576 832 576 832 608 800 c 256,0,1
EndSplineSet
Validated: 1
Colour: 80bf
EndChar
StartChar: pumddldt
Encoding: 57581 57581 1513
Width: 1024
VWidth: 0
Flags: W
LayerCount: 5
Back
SplineSet
256 1664 m 29
 256 -384 l 1309
128 1664 m 29
 128 -384 l 1309
576 1664 m 29
 576 -384 l 1309
896 1664 m 29
 896 -384 l 1309
0 576 m 285
 1024 576 l 1309
0 512 m 285
 1024 512 l 1309
0 704 m 285
 1024 704 l 1309
0 768 m 285
 1024 768 l 1309
0 640 m 285
 1024 640 l 1309
0 384 m 285
 1024 384 l 1309
0 896 m 285
 1024 896 l 1309
448 1664 m 29
 448 -384 l 1309
640 1664 m 29
 640 -384 l 1309
512 1664 m 29
 512 -384 l 1309
384 1664 m 29
 384 -384 l 1309
768 1664 m 29
 768 -384 l 1309
EndSplineSet
Fore
SplineSet
464 704 m 2,0,-1
 560 704 l 2,1,2
 576 704 576 704 576 688 c 2,3,-1
 576 592 l 2,4,5
 576 576 576 576 560 576 c 2,6,-1
 464 576 l 2,7,8
 448 576 448 576 448 592 c 2,9,-1
 448 688 l 2,10,11
 448 704 448 704 464 704 c 2,0,-1
EndSplineSet
Validated: 1
EndChar
StartChar: uniE0F9
Encoding: 57593 57593 1525
Width: 1024
VWidth: 0
Flags: W
LayerCount: 5
Back
Refer: 1513 57581 N 1 0 0 1 0 0 2
Fore
SplineSet
224 736 m 258,0,-1
 480 736 l 258,1,2
 512 736 512 736 544 704 c 280,3,4
 576 672 576 672 576 640 c 258,5,-1
 576 624 l 258,6,7
 576 608 576 608 592 608 c 258,8,-1
 672 608 l 282,9,10
 704 608 704 608 736 640 c 280,11,12
 768 672 768 672 768 704 c 282,13,-1
 768 720 l 258,14,15
 768 736 768 736 784 736 c 258,16,-1
 880 736 l 258,17,18
 896 736 896 736 896 720 c 258,19,-1
 896 640 l 258,20,21
 896 608 896 608 864 576 c 256,22,23
 832 544 832 544 800 544 c 258,24,-1
 544 544 l 258,25,26
 512 544 512 544 480 576 c 280,27,28
 448 608 448 608 448 640 c 258,29,-1
 448 656 l 258,30,31
 448 672 448 672 432 672 c 258,32,-1
 352 672 l 258,33,34
 320 672 320 672 288 640 c 256,35,36
 256 608 256 608 256 576 c 258,37,-1
 256 560 l 258,38,39
 256 544 256 544 240 544 c 258,40,-1
 144 544 l 258,41,42
 128 544 128 544 128 560 c 258,43,-1
 128 640 l 258,44,45
 128 672 128 672 160 704 c 256,46,47
 192 736 192 736 224 736 c 258,0,-1
EndSplineSet
Validated: 1
EndChar
StartChar: uniE0FA
Encoding: 57594 57594 1526
Width: 1024
VWidth: 0
Flags: W
LayerCount: 5
Back
Refer: 1513 57581 N 1 0 0 1 0 0 2
Fore
SplineSet
800 736 m 258,0,1
 832 736 832 736 864 704 c 256,2,3
 896 672 896 672 896 640 c 258,4,-1
 896 560 l 258,5,6
 896 544 896 544 880 544 c 258,7,-1
 784 544 l 258,8,9
 768 544 768 544 768 560 c 258,10,-1
 768 576 l 258,11,12
 768 608 768 608 736 640 c 256,13,14
 704 672 704 672 672 672 c 258,15,-1
 592 672 l 258,16,17
 576 672 576 672 576 656 c 258,18,-1
 576 640 l 258,19,20
 576 608 576 608 544 576 c 280,21,22
 512 544 512 544 480 544 c 258,23,-1
 224 544 l 258,24,25
 192 544 192 544 160 576 c 256,26,27
 128 608 128 608 128 640 c 258,28,-1
 128 720 l 258,29,30
 128 736 128 736 144 736 c 258,31,-1
 240 736 l 258,32,33
 256 736 256 736 256 720 c 258,34,-1
 256 704 l 282,35,36
 256 672 256 672 288 640 c 280,37,38
 320 608 320 608 352 608 c 282,39,-1
 432 608 l 258,40,41
 448 608 448 608 448 624 c 258,42,-1
 448 640 l 258,43,44
 448 672 448 672 480 704 c 280,45,46
 512 736 512 736 544 736 c 258,47,-1
 800 736 l 258,0,1
EndSplineSet
Validated: 1
EndChar
StartChar: uniE109
Encoding: 57609 57609 1541
Width: 1024
VWidth: 0
Flags: W
LayerCount: 5
Back
Refer: 1513 57581 S 1 0 0 1 0 0 2
Fore
SplineSet
144 704 m 2,0,-1
 688 704 l 2,1,2
 704 704 704 704 704 688 c 2,3,-1
 704 592 l 2,4,5
 704 576 704 576 688 576 c 2,6,-1
 144 576 l 2,7,8
 128 576 128 576 128 592 c 2,9,-1
 128 688 l 2,10,11
 128 704 128 704 144 704 c 2,0,-1
EndSplineSet
Validated: 1
EndChar
StartChar: uniE110
Encoding: 57616 57616 1548
Width: 1024
VWidth: 0
Flags: W
LayerCount: 5
Back
Refer: 1513 57581 S 1 0 0 1 0 0 2
Fore
SplineSet
64 288 m 258,0,-1
 864 1088 l 258,1,2
 880 1104 880 1104 896 1088 c 258,3,-1
 960 1024 l 258,4,5
 976 1008 976 1008 960 992 c 258,6,-1
 160 192 l 258,7,8
 144 176 144 176 128 192 c 258,9,-1
 64 256 l 258,10,11
 48 272 48 272 64 288 c 258,0,-1
EndSplineSet
Validated: 1
EndChar
StartChar: uniE118
Encoding: 57624 57624 1556
Width: 1024
VWidth: 0
Flags: W
LayerCount: 5
Back
Refer: 1513 57581 S 1 0 0 1 0 0 2
Fore
SplineSet
896 368 m 258,0,-1
 896 272 l 258,1,2
 896 256 896 256 880 256 c 258,3,-1
 320 256 l 258,4,5
 256 256 256 256 192 320 c 256,6,7
 128 384 128 384 128 448 c 258,8,-1
 128 832 l 258,9,10
 128 896 128 896 192 960 c 256,11,12
 256 1024 256 1024 320 1024 c 258,13,-1
 880 1024 l 258,14,15
 896 1024 896 1024 896 1008 c 258,16,-1
 896 912 l 258,17,18
 896 896 896 896 880 896 c 258,19,-1
 352 896 l 258,20,21
 320 896 320 896 288 864 c 256,22,23
 256 832 256 832 256 800 c 258,24,-1
 256 480 l 258,25,26
 256 448 256 448 288 416 c 256,27,28
 320 384 320 384 352 384 c 258,29,-1
 880 384 l 258,30,31
 896 384 896 384 896 368 c 258,0,-1
EndSplineSet
Validated: 1
EndChar
